<?xml version="1.0" standalone="no"?>
<!DOCTYPE svg PUBLIC "-//W3C//DTD SVG 1.1//EN" "http://www.w3.org/Graphics/SVG/1.1/DTD/svg11.dtd" >
<svg>
<metadata>
Created by FontForge 20090622 at Thu May 12 16:49:06 2016
 By deploy user
Copyright (c) 2011 by Chester Jenkins at Village Type and Design. All rights reserved.
</metadata>
<defs>
<font id="WSansNew-Bold" horiz-adv-x="664" >
  <font-face 
    font-family="W Sans New Bold"
    font-weight="842"
    font-stretch="normal"
    units-per-em="1000"
    panose-1="0 0 0 0 0 0 0 0 0 0"
    ascent="790"
    descent="-210"
    x-height="570"
    cap-height="770"
    bbox="-127 -224 3477 4307"
    underline-thickness="50"
    underline-position="-50"
    unicode-range="U+0020-U+E785"
  />
<missing-glyph horiz-adv-x="804" 
d="M787 770v-770h-770v770h770zM97 694v-618h610v618h-610zM587 147l-185 185l-185 -185l-53 53l185 185l-185 185l53 53l185 -185l185 185l53 -53l-185 -185l185 -185z" />
    <glyph glyph-name=".notdef" horiz-adv-x="804" 
d="M787 770v-770h-770v770h770zM97 694v-618h610v618h-610zM587 147l-185 185l-185 -185l-53 53l185 185l-185 185l53 53l185 -185l185 185l53 -53l-185 -185l185 -185z" />
    <glyph glyph-name=".null" horiz-adv-x="0" 
 />
    <glyph glyph-name="nonmarkingreturn" horiz-adv-x="333" 
 />
    <glyph glyph-name="space" unicode=" " horiz-adv-x="240" 
 />
    <glyph glyph-name="exclam" unicode="!" horiz-adv-x="228" 
d="M224 770l-40 -540h-140l-40 540h220zM14 90q0 41 29.5 70.5t70.5 29.5t70.5 -29.5t29.5 -70.5t-29.5 -70.5t-70.5 -29.5t-70.5 29.5t-29.5 70.5z" />
    <glyph glyph-name="quotedbl" unicode="&#x22;" horiz-adv-x="448" 
d="M19 780h190l-15 -260h-160zM239 780h190l-15 -260h-160z" />
    <glyph glyph-name="numbersign" unicode="#" horiz-adv-x="628" 
d="M59 568h100l44 202h160l-44 -202h70l44 202h160l-44 -202h60v-146h-92l-16 -74h68v-146h-100l-44 -202h-160l44 202h-70l-44 -202h-160l44 202h-60v146h92l16 74h-68v146zM287 422l-16 -74h70l16 74h-70z" />
    <glyph glyph-name="dollar" unicode="$" horiz-adv-x="481" 
d="M475 276q0 -78 -64.5 -128t-156.5 -54l-42 -94h-143l50 111q-68 21 -113 68l106 104q53 -46 117 -46q30 0 47.5 10.5t17.5 28.5q0 22 -16 34.5t-63 25.5q-98 28 -134 65t-36 107q0 66 51 113.5t145 53.5l43 95h143l-51 -112q54 -21 91 -61l-93 -96q-44 32 -99 32
q-51 0 -51 -31q0 -16 18.5 -25t71.5 -23q87 -22 124 -61.5t37 -116.5z" />
    <glyph glyph-name="percent" unicode="%" horiz-adv-x="952" 
d="M22 595q0 78 55.5 133.5t133.5 55.5t133.5 -55.5t55.5 -133.5t-55.5 -133.5t-133.5 -55.5t-133.5 55.5t-55.5 133.5zM139 595q0 -33 21 -54t51 -21t51 21t21 54t-21 54t-51 21t-51 -21t-21 -54zM771 770l-447 -770h-143l447 770h143zM930 175q0 -78 -55.5 -133.5
t-133.5 -55.5t-133.5 55.5t-55.5 133.5t55.5 133.5t133.5 55.5t133.5 -55.5t55.5 -133.5zM813 175q0 33 -21 54t-51 21t-51 -21t-21 -54t21 -54t51 -21t51 21t21 54z" />
    <glyph glyph-name="ampersand" unicode="&#x26;" horiz-adv-x="731" 
d="M563 587q0 -65 -38 -105t-121 -87l101 -121q62 80 92 204l166 -92q-34 -155 -137 -258l107 -128h-245l-20 24q-93 -38 -185 -38q-131 0 -206 58t-75 158q0 78 33 126.5t105 90.5q-32 41 -45.5 79t-13.5 89q0 95 69 146t173 51q103 0 171.5 -51t68.5 -146zM283 154
q34 0 68 11l-113 136q-39 -30 -39 -78q0 -30 24 -49.5t60 -19.5zM268 581q0 -23 41 -71q54 30 65 44q10 12 10 27q0 23 -15 37t-42 14q-59 0 -59 -51z" />
    <glyph glyph-name="quotesingle" unicode="'" horiz-adv-x="228" 
d="M19 780h190l-15 -260h-160z" />
    <glyph glyph-name="parenleft" unicode="(" horiz-adv-x="356" 
d="M18 325q0 261 126 505h202q-130 -240 -130 -505t130 -505h-202q-126 244 -126 505z" />
    <glyph glyph-name="parenright" unicode=")" horiz-adv-x="356" 
d="M338 325q0 -261 -126 -505h-202q130 240 130 505t-130 505h202q126 -244 126 -505z" />
    <glyph glyph-name="asterisk" unicode="*" horiz-adv-x="370" 
d="M53 721l83 -45l-16 94h130l-16 -93l83 44l40 -123l-93 -14l68 -65l-106 -77l-41 84l-41 -84l-106 77l68 65l-93 14z" />
    <glyph glyph-name="plus" unicode="+" horiz-adv-x="540" 
d="M202 140v177h-177v136h177v177h136v-177h177v-136h-177v-177h-136z" />
    <glyph glyph-name="comma" unicode="," horiz-adv-x="235" 
d="M229 180l-76 -330h-155l28 330h203z" />
    <glyph glyph-name="hyphen" unicode="-" horiz-adv-x="290" 
d="M269 474v-140h-248v140h248z" />
    <glyph glyph-name="period" unicode="." horiz-adv-x="216" 
d="M8 90q0 41 29.5 70.5t70.5 29.5t70.5 -29.5t29.5 -70.5t-29.5 -70.5t-70.5 -29.5t-70.5 29.5t-29.5 70.5z" />
    <glyph glyph-name="slash" unicode="/" horiz-adv-x="586" 
d="M585 830l-445 -1010h-162l445 1010h162z" />
    <glyph glyph-name="zero" unicode="0" horiz-adv-x="690" 
d="M665 385q0 -180 -87.5 -290t-232.5 -110t-232.5 110t-87.5 290t87.5 290t232.5 110t232.5 -110t87.5 -290zM476 385q0 107 -34.5 167.5t-96.5 60.5t-96.5 -60.5t-34.5 -167.5t34.5 -167.5t96.5 -60.5t96.5 60.5t34.5 167.5z" />
    <glyph glyph-name="one" unicode="1" horiz-adv-x="350" 
d="M130 0v600h-123l77 170h246v-770h-200z" />
    <glyph glyph-name="two" unicode="2" horiz-adv-x="622" 
d="M310 785q136 0 214 -66t78 -163q0 -43 -16.5 -86t-35 -69.5t-52.5 -67.5l-141 -173h255v-160h-598v2l312 392q57 70 57 132q0 33 -25.5 60t-62.5 27q-80 0 -117 -87l-160 92q72 167 292 167z" />
    <glyph glyph-name="three" unicode="3" horiz-adv-x="620" 
d="M303 157q57 0 88.5 22.5t31.5 63.5q0 82 -108 82h-133v156h134q85 0 85 66q0 32 -25 49t-63 17q-83 0 -118 -68l-162 94q30 67 102 106.5t174 39.5q141 0 211 -65.5t70 -163.5q0 -99 -80 -152q102 -64 102 -173q0 -110 -82.5 -178t-232.5 -68q-220 0 -292 166l160 93
q36 -87 138 -87z" />
    <glyph glyph-name="four" unicode="4" horiz-adv-x="622" 
d="M528 780v-474h88v-170h-88v-136h-200v136h-322v130l390 514h132zM240 306h88v122z" />
    <glyph glyph-name="five" unicode="5" horiz-adv-x="620" 
d="M572 600h-323v-90q49 17 93 17q125 0 197.5 -76.5t72.5 -194.5q0 -120 -80 -195.5t-235 -75.5q-220 0 -292 166l160 93q19 -45 49.5 -66t82.5 -21q56 0 86 26.5t30 72.5q0 45 -30.5 72t-85.5 27q-72 0 -102 -33l-146 90v358h523v-170z" />
    <glyph glyph-name="six" unicode="6" horiz-adv-x="610" 
d="M483 770l-143 -237q118 -11 189 -88t71 -185q0 -116 -81.5 -195.5t-213.5 -79.5t-213.5 79.5t-81.5 195.5q0 80 39 143l214 367h220zM411 260q0 43 -31 73t-75 30t-75 -30t-31 -73t31 -73t75 -30t75 30t31 73z" />
    <glyph glyph-name="seven" unicode="7" horiz-adv-x="646" 
d="M86 0l276 610h-352v160h630v-2l-345 -768h-209z" />
    <glyph glyph-name="eight" unicode="8" horiz-adv-x="584" 
d="M292 -15q-132 0 -206 66.5t-74 175.5q0 105 93 179q-71 61 -71 154q0 96 65 160t193 64t193 -64t65 -160q0 -92 -72 -154q94 -74 94 -179q0 -109 -74 -175.5t-206 -66.5zM292 157q42 0 66.5 23t24.5 60t-24.5 60t-66.5 23t-66.5 -23t-24.5 -60t24.5 -60t66.5 -23z
M361 548q0 29 -19 47t-50 18t-50 -18t-19 -47t19 -47t50 -18t50 18t19 47z" />
    <glyph glyph-name="nine" unicode="9" horiz-adv-x="610" 
d="M127 0l142 236q-118 11 -188.5 88.5t-70.5 185.5q0 116 81.5 195.5t213.5 79.5t213.5 -79.5t81.5 -195.5q0 -72 -35 -136l-218 -374h-220zM199 510q0 -43 31 -73t75 -30t75 30t31 73t-31 73t-75 30t-75 -30t-31 -73z" />
    <glyph glyph-name="colon" unicode=":" horiz-adv-x="216" 
d="M8 90q0 41 29.5 70.5t70.5 29.5t70.5 -29.5t29.5 -70.5t-29.5 -70.5t-70.5 -29.5t-70.5 29.5t-29.5 70.5zM8 404q0 41 29.5 70.5t70.5 29.5t70.5 -29.5t29.5 -70.5t-29.5 -70.5t-70.5 -29.5t-70.5 29.5t-29.5 70.5z" />
    <glyph glyph-name="semicolon" unicode=";" horiz-adv-x="235" 
d="M23 404q0 41 29.5 70.5t70.5 29.5t70.5 -29.5t29.5 -70.5t-29.5 -70.5t-70.5 -29.5t-70.5 29.5t-29.5 70.5zM229 180l-76 -330h-155l28 330h203z" />
    <glyph glyph-name="less" unicode="&#x3c;" horiz-adv-x="539" 
d="M21 453l490 188v-166l-277 -90l277 -90v-166l-490 188v136z" />
    <glyph glyph-name="equal" unicode="=" horiz-adv-x="540" 
d="M25 558h490v-136h-490v136zM25 348h490v-136h-490v136z" />
    <glyph glyph-name="greater" unicode="&#x3e;" horiz-adv-x="539" 
d="M28 641l490 -188v-136l-490 -188v166l276 90l-276 90v166z" />
    <glyph glyph-name="question" unicode="?" horiz-adv-x="617" 
d="M303 613q-102 0 -138 -87l-160 93q72 166 302 166q149 0 227 -67.5t78 -178.5q0 -107 -64.5 -163.5t-164.5 -71.5l-6 -74h-140l-17 215h95q57 1 82.5 21t25.5 61t-31.5 63.5t-88.5 22.5zM207 90q0 41 29.5 70.5t70.5 29.5t70.5 -29.5t29.5 -70.5t-29.5 -70.5t-70.5 -29.5
t-70.5 29.5t-29.5 70.5z" />
    <glyph glyph-name="at" unicode="@" horiz-adv-x="963" 
d="M725 58q-117 0 -152 76q-65 -76 -158 -76q-92 0 -152 64.5t-60 162.5t60 162t152 64q86 0 144 -64v52h153v-281q0 -57 55 -57q35 0 68 44.5t33 144.5q0 46 -11 90t-38.5 88t-69 76.5t-107.5 52.5t-149 20q-173 0 -285 -113.5t-112 -278.5q0 -162 115 -277t277 -115
q34 0 65 3t56.5 9.5l46 12t40.5 17t31.5 17.5t27 19.5t20.5 17.5t18 17l13 14l58 -51q-22 -22 -34.5 -33.5t-49.5 -37t-72.5 -39.5t-94.5 -26.5t-125 -12.5q-193 0 -331 136.5t-138 328.5q0 128 60.5 234t169.5 168.5t244 62.5q91 0 171.5 -25.5t143.5 -73.5t100 -126
t37 -175q0 -76 -20 -134.5t-53 -91.5t-70 -49.5t-77 -16.5zM359 285q0 -47 28 -73.5t71 -26.5q44 0 72.5 26.5t28.5 73.5t-28.5 73t-72.5 26q-43 0 -71 -26t-28 -73z" />
    <glyph glyph-name="A" unicode="A" horiz-adv-x="810" 
d="M601 0l-49 100h-295l-48 -100h-209l403 780h4l403 -780h-209zM405 402l-65 -132h129z" />
    <glyph glyph-name="B" unicode="B" horiz-adv-x="610" 
d="M25 0v770h320q94 0 152 -58t58 -152q0 -96 -75 -155q52 -26 83.5 -75t31.5 -110q0 -95 -62.5 -157.5t-157.5 -62.5h-350zM317 310h-92v-140h92q34 0 56 19t22 51t-22 51t-56 19zM289 600h-64v-120h64q28 0 47 16.5t19 43.5t-19 43.5t-47 16.5z" />
    <glyph glyph-name="C" unicode="C" horiz-adv-x="717" 
d="M10 385q0 180 112 290t293 110q184 0 296 -114l-139 -139q-57 68 -157 68q-93 0 -149 -58t-56 -157t56 -157t149 -58q101 0 157 68l140 -140q-113 -113 -297 -113q-181 0 -293 110t-112 290z" />
    <glyph glyph-name="D" unicode="D" horiz-adv-x="745" 
d="M735 385q0 -168 -107 -276.5t-268 -108.5h-335v770h335q161 0 268 -108.5t107 -276.5zM325 600h-100v-430h100q96 0 153 58.5t57 156.5t-57 156.5t-153 58.5z" />
    <glyph glyph-name="E" unicode="E" horiz-adv-x="578" 
d="M565 170v-170h-540v770h540v-170h-340v-120h280v-170h-280v-140h340z" />
    <glyph glyph-name="F" unicode="F" horiz-adv-x="555" 
d="M485 460v-170h-260v-290h-200v770h520v-170h-320v-140h260z" />
    <glyph glyph-name="G" unicode="G" horiz-adv-x="790" 
d="M420 280v170h360v-65q0 -195 -97.5 -297.5t-279.5 -102.5q-169 0 -281 111t-112 289q0 180 112 290t293 110q184 0 296 -114l-139 -139q-57 68 -157 68q-93 0 -149 -58t-56 -157q0 -98 56 -156.5t143 -58.5q68 0 107.5 26t54.5 84h-151z" />
    <glyph glyph-name="H" unicode="H" horiz-adv-x="750" 
d="M725 770v-770h-200v310h-300v-310h-200v770h200v-290h300v290h200z" />
    <glyph glyph-name="I" unicode="I" horiz-adv-x="250" 
d="M225 770v-770h-200v770h200z" />
    <glyph glyph-name="J" unicode="J" horiz-adv-x="501" 
d="M278 255v515h200v-534q0 -122 -71 -186.5t-189 -64.5q-74 0 -133 29.5t-83 72.5l131 131q29 -39 70 -39q32 0 53.5 21t21.5 55z" />
    <glyph glyph-name="K" unicode="K" horiz-adv-x="765" 
d="M225 770v-277l246 277h254l-304 -319l334 -451h-254l-218 306l-58 -61v-245h-200v770h200z" />
    <glyph glyph-name="L" unicode="L" horiz-adv-x="533" 
d="M525 170v-170h-500v770h200v-600h300z" />
    <glyph glyph-name="M" unicode="M" horiz-adv-x="870" 
d="M645 0l9 309l-217 -240h-4l-217 240l9 -309h-200v780h4l406 -445l406 445h4v-780h-200z" />
    <glyph glyph-name="N" unicode="N" horiz-adv-x="770" 
d="M29 780l526 -410l-10 400h200v-780h-4l-526 410l10 -400h-200v780h4z" />
    <glyph glyph-name="O" unicode="O" horiz-adv-x="830" 
d="M620 385q0 99 -56 157t-149 58t-149 -58t-56 -157t56 -157t149 -58t149 58t56 157zM820 385q0 -180 -112 -290t-293 -110t-293 110t-112 290t112 290t293 110t293 -110t112 -290z" />
    <glyph glyph-name="P" unicode="P" horiz-adv-x="622" 
d="M25 0v770h325q110 0 187.5 -78t77.5 -187t-77.5 -187t-187.5 -78h-125v-240h-200zM320 600h-95v-190h95q39 0 67 28t28 67t-28 67t-67 28z" />
    <glyph glyph-name="Q" unicode="Q" horiz-adv-x="830" 
d="M820 385q0 -118 -50 -208.5t-140 -139.5l70 -154h-179l-48 105q-29 -3 -58 -3q-181 0 -293 110t-112 290t112 290t293 110t293 -110t112 -290zM330 308h179l41 -93q70 59 70 170q0 99 -56 157t-149 58t-149 -58t-56 -157q0 -93 49 -149.5t132 -64.5z" />
    <glyph glyph-name="R" unicode="R" horiz-adv-x="640" 
d="M615 515q0 -71 -35.5 -130t-94.5 -93l155 -292h-200l-138 260h-77v-260h-200v770h335q106 0 180.5 -74.5t74.5 -180.5zM330 600h-105v-170h105q35 0 60 25t25 60t-25 60t-60 25z" />
    <glyph glyph-name="S" unicode="S" horiz-adv-x="603" 
d="M289 155q48 0 76.5 19.5t28.5 56.5q0 17 -10 30.5t-33 25t-41.5 18t-54.5 17.5q-101 31 -158 83t-57 144q0 105 79 170t195 65q94 0 163.5 -37.5t96.5 -104.5l-161 -93q-33 66 -93 66q-37 0 -57 -17t-20 -41q0 -11 3.5 -19.5t11.5 -15t15.5 -11.5t21 -10t22.5 -7.5l26 -7
t26 -7.5q60 -18 98.5 -36.5t69.5 -47t45 -70t14 -98.5q0 -93 -84 -167t-218 -74q-106 0 -180 42.5t-109 122.5l160 93q33 -89 124 -89z" />
    <glyph glyph-name="T" unicode="T" horiz-adv-x="616" 
d="M608 770v-170h-200v-600h-200v600h-200v170h600z" />
    <glyph glyph-name="U" unicode="U" horiz-adv-x="666" 
d="M333 -15q-137 0 -223.5 82t-86.5 222v481h200v-490q0 -52 30 -81t80 -29t80 29t30 81v490h200v-481q0 -140 -86.5 -222t-223.5 -82z" />
    <glyph glyph-name="V" unicode="V" horiz-adv-x="810" 
d="M209 770l196 -402l196 402h209l-403 -780h-4l-403 780h209z" />
    <glyph glyph-name="W" unicode="W" horiz-adv-x="1164" 
d="M586 770l203 -375l155 375h215l-338 -780h-9l-230 430l-230 -430h-9l-338 780h215l154 -375l204 375h8z" />
    <glyph glyph-name="X" unicode="X" horiz-adv-x="776" 
d="M558 0l-170 244l-170 -244h-220l280 403l-255 367h220l145 -209l145 209h220l-255 -367l280 -403h-220z" />
    <glyph glyph-name="Y" unicode="Y" horiz-adv-x="760" 
d="M192 770l188 -344l188 344h207l-295 -500v-270h-200v270l-295 500h207z" />
    <glyph glyph-name="Z" unicode="Z" 
d="M12 4l342 596h-302v170h600v-4l-342 -596h332v-170h-630v4z" />
    <glyph glyph-name="bracketleft" unicode="[" horiz-adv-x="294" 
d="M276 -44v-136h-252v1010h252v-136h-75v-738h75z" />
    <glyph glyph-name="backslash" unicode="\" horiz-adv-x="586" 
d="M446 -180l-445 1010h162l445 -1010h-162z" />
    <glyph glyph-name="bracketright" unicode="]" horiz-adv-x="294" 
d="M18 -180v136h75v738h-75v136h252v-1010h-252z" />
    <glyph glyph-name="asciicircum" unicode="^" horiz-adv-x="554" 
d="M345 784l188 -484h-166l-90 271l-90 -271h-166l188 484h136z" />
    <glyph glyph-name="underscore" unicode="_" horiz-adv-x="438" 
d="M419 -80v-130h-400v130h400z" />
    <glyph glyph-name="grave" unicode="`" horiz-adv-x="377" 
d="M257 631l-15 -26l-185 55l55 96z" />
    <glyph glyph-name="a" unicode="a" 
d="M9 285q0 124 82.5 210.5t204.5 86.5q98 0 178 -51v39h177v-570h-176v40q-79 -52 -179 -52q-122 0 -204.5 86.5t-82.5 210.5zM475 285q0 60 -42.5 102.5t-102.5 42.5q-62 0 -103.5 -41.5t-41.5 -103.5t41.5 -103.5t103.5 -41.5q60 0 102.5 42.5t42.5 102.5z" />
    <glyph glyph-name="b" unicode="b" 
d="M655 285q0 -124 -82.5 -210.5t-204.5 -86.5q-100 0 -179 52v-40h-176v790h180v-257q77 49 175 49q122 0 204.5 -86.5t82.5 -210.5zM189 285q0 -60 42.5 -102.5t102.5 -42.5q62 0 103.5 41.5t41.5 103.5t-41.5 103.5t-103.5 41.5q-60 0 -102.5 -42.5t-42.5 -102.5z" />
    <glyph glyph-name="c" unicode="c" horiz-adv-x="546" 
d="M185 285q0 -63 35.5 -99t94.5 -36q71 0 104 53l121 -121q-76 -94 -225 -94q-135 0 -220.5 83t-85.5 214t85.5 214t220.5 83q149 0 225 -94l-121 -121q-33 53 -104 53q-59 0 -94.5 -36t-35.5 -99z" />
    <glyph glyph-name="d" unicode="d" 
d="M9 285q0 124 82.5 210.5t204.5 86.5q98 0 175 -49v257h180v-790h-176v40q-79 -52 -179 -52q-122 0 -204.5 86.5t-82.5 210.5zM475 285q0 60 -42.5 102.5t-102.5 42.5q-62 0 -103.5 -41.5t-41.5 -103.5t41.5 -103.5t103.5 -41.5q60 0 102.5 42.5t42.5 102.5z" />
    <glyph glyph-name="e" unicode="e" horiz-adv-x="610" 
d="M327 136q113 0 174 70l100 -99q-96 -119 -279 -119q-147 0 -230 86t-83 211q0 122 86 209.5t218 87.5q131 0 209.5 -85.5t78.5 -211.5v-60h-409q26 -89 135 -89zM310 434q-97 0 -120 -89h231q-17 89 -111 89z" />
    <glyph glyph-name="f" unicode="f" horiz-adv-x="405" 
d="M373 570v-140h-110v-430h-180v430h-75v140h75v44q0 83 52.5 135.5t137.5 52.5t137 -44l-62 -129q-16 11 -35 11q-22 0 -36 -13t-14 -34v-23h110z" />
    <glyph glyph-name="g" unicode="g" horiz-adv-x="636" 
d="M623 39h-1q-4 -122 -98.5 -192.5t-236.5 -70.5q-191 0 -284 126l105 106q26 -36 72 -60t103 -24q70 0 114 31t46 79v42q-67 -48 -151 -48q-115 0 -193 79.5t-78 197.5t78 197.5t193 79.5q84 0 155 -51v39h176v-531zM447 305q0 55 -35.5 90t-89.5 35q-55 0 -90 -35
t-35 -90t35 -90t90 -35q54 0 89.5 35t35.5 90z" />
    <glyph glyph-name="h" unicode="h" horiz-adv-x="569" 
d="M193 790v-263q62 55 165 55q83 0 141 -51t58 -135v-396h-180v362q-1 33 -25 53.5t-59 20.5q-44 0 -72 -23.5t-28 -64.5v-348h-180v790h180z" />
    <glyph glyph-name="i" unicode="i" horiz-adv-x="220" 
d="M200 570v-570h-180v570h180zM10 702q0 41 29.5 70.5t70.5 29.5t70.5 -29.5t29.5 -70.5t-29.5 -70.5t-70.5 -29.5t-70.5 29.5t-29.5 70.5z" />
    <glyph glyph-name="j" unicode="j" horiz-adv-x="220" 
d="M10 702q0 41 29.5 70.5t70.5 29.5t70.5 -29.5t29.5 -70.5t-29.5 -70.5t-70.5 -29.5t-70.5 29.5t-29.5 70.5zM20 -13v583h180v-604q0 -83 -52.5 -135.5t-137.5 -52.5t-137 44l62 129q16 -11 35 -11q22 0 36 13t14 34z" />
    <glyph glyph-name="k" unicode="k" horiz-adv-x="587" 
d="M193 790v-391l152 171h218l-208 -217l230 -353h-214l-132 231l-46 -49v-182h-180v790h180z" />
    <glyph glyph-name="l" unicode="l" horiz-adv-x="206" 
d="M13 0v790h180v-790h-180z" />
    <glyph glyph-name="m" unicode="m" horiz-adv-x="859" 
d="M189 570v-47q61 59 160 59q46 0 85.5 -21.5t61.5 -60.5q62 82 180 82q72 0 121.5 -48.5t49.5 -131.5v-402h-180v374q-3 62 -64 62q-34 0 -58.5 -20.5t-24.5 -63.5v-352h-180v374q-3 62 -64 62q-33 0 -57.5 -19.5t-25.5 -60.5v-356h-180v570h176z" />
    <glyph glyph-name="n" unicode="n" horiz-adv-x="569" 
d="M377 0v359q0 34 -24 55.5t-60 21.5q-43 0 -71 -22.5t-29 -61.5v-352h-180v570h176v-46q63 58 169 58q83 0 141 -51t58 -135v-396h-180z" />
    <glyph glyph-name="o" unicode="o" horiz-adv-x="630" 
d="M621 285q0 -131 -85.5 -214t-220.5 -83t-220.5 83t-85.5 214t85.5 214t220.5 83t220.5 -83t85.5 -214zM185 285q0 -63 35.5 -99t94.5 -36t94.5 36t35.5 99t-35.5 99t-94.5 36t-94.5 -36t-35.5 -99z" />
    <glyph glyph-name="p" unicode="p" 
d="M655 285q0 -124 -82.5 -210.5t-204.5 -86.5q-100 0 -175 49v-247h-180v780h176v-40q79 52 179 52q122 0 204.5 -86.5t82.5 -210.5zM189 285q0 -60 42.5 -102.5t102.5 -42.5q62 0 103.5 41.5t41.5 103.5t-41.5 103.5t-103.5 41.5q-60 0 -102.5 -42.5t-42.5 -102.5z" />
    <glyph glyph-name="q" unicode="q" 
d="M9 285q0 124 82.5 210.5t204.5 86.5q100 0 179 -52v40h176v-780h-180v247q-75 -49 -175 -49q-122 0 -204.5 86.5t-82.5 210.5zM475 285q0 60 -42.5 102.5t-102.5 42.5q-62 0 -103.5 -41.5t-41.5 -103.5t41.5 -103.5t103.5 -41.5q60 0 102.5 42.5t42.5 102.5z" />
    <glyph glyph-name="r" unicode="r" horiz-adv-x="396" 
d="M189 570v-42q44 54 120 54q56 0 85 -31l-57 -146q-19 15 -48 15q-43 0 -69.5 -26t-26.5 -73v-321h-180v570h176z" />
    <glyph glyph-name="s" unicode="s" horiz-adv-x="501" 
d="M254 -12q-165 0 -248 102l106 104q52 -64 133 -64q75 0 75 41q0 24 -21.5 35t-82.5 21q-91 15 -137 61t-46 106q0 85 66 136.5t161 51.5q70 0 124.5 -25.5t83.5 -72.5l-93 -91q-34 47 -105 47q-63 0 -63 -39q0 -10 6 -17t24 -13t31.5 -9t48.5 -10q85 -17 131 -59t46 -121
q0 -80 -70.5 -132t-169.5 -52z" />
    <glyph glyph-name="t" unicode="t" horiz-adv-x="428" 
d="M398 570v-140h-130v-233q0 -21 14 -34t36 -13q18 0 35 11l62 -129q-52 -44 -137 -44t-137.5 52.5t-52.5 135.5v254h-80v140h80v132h180v-132h130z" />
    <glyph glyph-name="u" unicode="u" horiz-adv-x="569" 
d="M192 570v-359q0 -34 24 -55.5t60 -21.5q44 0 72 23.5t28 64.5v348h180v-570h-176v46q-61 -58 -169 -58q-83 0 -141 51t-58 135v396h180z" />
    <glyph glyph-name="v" unicode="v" horiz-adv-x="628" 
d="M197 570l117 -242l117 242h193l-308 -582h-4l-308 582h193z" />
    <glyph glyph-name="w" unicode="w" horiz-adv-x="882" 
d="M443 576l160 -261l97 255h176l-237 -582h-4l-194 326l-194 -326h-4l-237 582h176l97 -255l160 261h4z" />
    <glyph glyph-name="x" unicode="x" horiz-adv-x="672" 
d="M6 0l222 291l-212 279h215l105 -138l105 138h215l-213 -279l223 -291h-215l-115 150l-115 -150h-215z" />
    <glyph glyph-name="y" unicode="y" horiz-adv-x="692" 
d="M328 -210h-212l113 237l-227 543h204l127 -324l146 324h210z" />
    <glyph glyph-name="z" unicode="z" horiz-adv-x="546" 
d="M8 8l272 426h-242v136h500v-8l-272 -426h272v-136h-530v8z" />
    <glyph glyph-name="braceleft" unicode="{" horiz-adv-x="327" 
d="M242 225v-218q0 -23 14 -37t37 -14h16v-136h-119q-50 0 -87.5 38t-37.5 87v274q0 23 -14 37t-37 14h-11v110h11q23 0 37 14t14 37v274q0 49 37.5 87t87.5 38h119v-136h-16q-23 0 -37 -14t-14 -37v-218q0 -61 -53 -100q53 -41 53 -100z" />
    <glyph glyph-name="bar" unicode="|" horiz-adv-x="215" 
d="M19 -180v1010h177v-1010h-177z" />
    <glyph glyph-name="braceright" unicode="}" horiz-adv-x="327" 
d="M85 7v218q0 60 52 100q-52 39 -52 100v218q0 23 -14 37t-37 14h-16v136h119q49 0 87 -38t38 -87v-274q0 -23 14 -37t37 -14h11v-110h-11q-23 0 -37 -14t-14 -37v-274q0 -49 -38 -87t-87 -38h-119v136h16q23 0 37 14t14 37z" />
    <glyph glyph-name="asciitilde" unicode="~" horiz-adv-x="491" 
d="M364 485h124q0 -83 -40 -132.5t-113 -49.5q-38 0 -69 17.5t-55.5 35.5t-46.5 18q-36 0 -36 -51h-124q0 83 40 132.5t113 49.5q38 0 69 -17.5t55.5 -35.5t46.5 -18q36 0 36 51z" />
    <glyph glyph-name="exclamdown" unicode="&#xa1;" horiz-adv-x="228" 
d="M4 -210l40 550h140l40 -550h-220zM214 480q0 -41 -29.5 -70.5t-70.5 -29.5t-70.5 29.5t-29.5 70.5t29.5 70.5t70.5 29.5t70.5 -29.5t29.5 -70.5z" />
    <glyph glyph-name="cent" unicode="&#xa2;" horiz-adv-x="474" 
d="M6 385q0 135 70.5 209.5t175.5 80.5l42 95h143l-54 -120q43 -25 81 -74l-104 -99q-45 56 -86 56t-64 -37.5t-23 -110.5t23 -110.5t64 -37.5t86 56l104 -99q-39 -50 -82.5 -75t-109.5 -25q-19 0 -28 1l-42 -95h-143l62 138q-115 76 -115 247z" />
    <glyph glyph-name="sterling" unicode="&#xa3;" horiz-adv-x="639" 
d="M10 451h67q-10 52 -10 105q0 102 75 165.5t206 63.5q111 0 177.5 -40.5t103.5 -126.5l-160 -92q-37 87 -107 87q-37 0 -61.5 -26t-24.5 -61q0 -38 8 -75h194v-160h-155q12 -60 13 -131h292v-160h-618v160h127q-4 68 -19 131h-108v160z" />
    <glyph glyph-name="yen" unicode="&#xa5;" horiz-adv-x="722" 
d="M201 770l160 -314l160 314h205l-211 -371h146v-116h-204v-46h204v-116h-203l2 -121h-198l1 121h-202v116h203l1 46h-204v116h146l-211 371h205z" />
    <glyph glyph-name="brokenbar" unicode="&#xa6;" horiz-adv-x="215" 
d="M19 -180v468h177v-468h-177zM19 362v468h177v-468h-177z" />
    <glyph glyph-name="section" unicode="&#xa7;" horiz-adv-x="1761" 
d="M700 4163v-770h-200v310h-300v-310h-200v770h200v-290h300v290h200zM599 2540v770h355q110 0 187.5 -78t77.5 -187t-77.5 -187t-187.5 -78h-155v-240h-200zM540 1857v-170h-540v770h540v-170h-340v-120h280v-170h-280v-140h340zM606 2467l526 -410l-10 400h200v-181
l-198 -448l-332 259l10 -400h-200v780h4zM1329 3393l-49 100h-295l-48 -100h-209l403 780h4l403 -780h-209zM296 1614l526 -410l-10 400h200v-32l-247 -559l-283 221l10 -400h-200v780h4zM324 150q35 0 66 10l-86 -195q-158 6 -271.5 120t-113.5 280q0 169 117 284.5
t288 115.5q173 0 286 -105l-77 -174q-43 50 -89 72t-120 22q-87 0 -146 -62t-59 -153t59 -153t146 -62zM1598 2950q12 0 22 3l-76 -173h-71v-162l-35 -78h-165v770h355q82 0 129 -44l-76 -175q-29 49 -83 49h-125v-190h125zM200 1604v-770h-200v770h200zM924 3140h-125v-190
h125q39 0 67 28t28 67t-28 67t-67 28zM329 260v170h180l-75 -170h-105zM1133 3795l-65 -132h129z" />
    <glyph glyph-name="dieresis" unicode="&#xa8;" horiz-adv-x="540" 
d="M40 702q0 41 29.5 70.5t70.5 29.5t70.5 -29.5t29.5 -70.5t-29.5 -70.5t-70.5 -29.5t-70.5 29.5t-29.5 70.5zM300 702q0 41 29.5 70.5t70.5 29.5t70.5 -29.5t29.5 -70.5t-29.5 -70.5t-70.5 -29.5t-70.5 29.5t-29.5 70.5z" />
    <glyph glyph-name="copyright" unicode="&#xa9;" horiz-adv-x="824" 
d="M17 385q0 163 115.5 279t279.5 116t279.5 -116t115.5 -279t-115.5 -279t-279.5 -116t-279.5 116t-115.5 279zM77 385q0 -139 98 -237t237 -98t237 98t98 237t-98 237t-237 98t-237 -98t-98 -237zM329 385q0 -44 25.5 -69t66.5 -25q53 0 75 37l85 -86q-52 -66 -160 -66
q-95 0 -155.5 58.5t-60.5 150.5t60.5 150.5t155.5 58.5q108 0 160 -66l-85 -86q-22 37 -75 37q-41 0 -66.5 -25t-25.5 -69z" />
    <glyph glyph-name="ordfeminine" unicode="&#xaa;" horiz-adv-x="353" 
d="M240 490v34q-37 -42 -94 -42q-60 0 -99 42t-39 106t39 106t99 42q57 0 94 -42v34h101v-280h-101zM116 630q0 -27 17 -43t42 -16t41.5 16t16.5 43q0 28 -16 43t-42 15t-42.5 -15t-16.5 -43z" />
    <glyph glyph-name="guillemotleft" unicode="&#xab;" horiz-adv-x="449" 
d="M221 440l-117 -115l117 -115v-120l-200 145v180l200 145v-120zM421 450l-117 -125l117 -125v-120l-200 165v160l200 165v-120z" />
    <glyph glyph-name="registered" unicode="&#xae;" horiz-adv-x="390" 
d="M195 501q-74 0 -127 52.5t-53 125.5t53 125.5t127 52.5t127 -52.5t53 -125.5t-53 -125.5t-127 -52.5zM195 527q63 0 107.5 44.5t44.5 107.5t-44.5 107.5t-107.5 44.5t-107.5 -44.5t-44.5 -107.5t44.5 -107.5t107.5 -44.5zM284 717q0 -40 -34 -62l38 -85h-57l-33 74h-25
v-74h-58v220h96q30 0 51.5 -21.5t21.5 -51.5zM203 742h-30v-49h30q10 0 17 7t7 17t-7 17.5t-17 7.5z" />
    <glyph glyph-name="macron" unicode="&#xaf;" horiz-adv-x="426" 
d="M353 713v-82h-280v82h280z" />
    <glyph glyph-name="degree" unicode="&#xb0;" horiz-adv-x="422" 
d="M22 595q0 78 55.5 133.5t133.5 55.5t133.5 -55.5t55.5 -133.5t-55.5 -133.5t-133.5 -55.5t-133.5 55.5t-55.5 133.5zM139 595q0 -33 21 -54t51 -21t51 21t21 54t-21 54t-51 21t-51 -21t-21 -54z" />
    <glyph glyph-name="plusminus" unicode="&#xb1;" horiz-adv-x="540" 
d="M202 320v97h-177v136h177v97h136v-97h177v-136h-177v-97h-136zM25 256h490v-136h-490v136z" />
    <glyph glyph-name="twosuperior" unicode="&#xb2;" horiz-adv-x="323" 
d="M161 777q68 0 107 -32.5t39 -81.5q0 -21 -8.5 -43t-17.5 -34.5l-26 -34.5l-71 -86h128v-80h-299v1l156 196q28 34 28 66q0 17 -12.5 30t-31.5 13q-40 0 -58 -43l-80 46q36 83 146 83z" />
    <glyph glyph-name="threesuperior" unicode="&#xb3;" horiz-adv-x="322" 
d="M157 463q60 0 60 43q0 41 -54 41h-66v78h67q42 0 42 33t-44 33q-41 0 -59 -34l-81 47q15 34 51 53.5t87 19.5q70 0 105.5 -33t35.5 -81q0 -50 -40 -76q51 -33 51 -87q0 -55 -41.5 -89t-116.5 -34q-110 0 -146 83l80 47q18 -44 69 -44z" />
    <glyph glyph-name="acute" unicode="&#xb4;" horiz-adv-x="377" 
d="M135 605l-15 26l145 125l55 -96z" />
    <glyph glyph-name="paragraph" unicode="&#xb6;" horiz-adv-x="3477" 
d="M1169 2298l-837 1935h375l466 -1109l555 1183l559 -1183l476 1109h375l-856 -1939l-554 1222zM1173 1237q0 -115 -64.5 -188.5t-183.5 -73.5q-112 0 -178.5 71t-66.5 187q0 126 72.5 191t175.5 65q106 0 175.5 -68t69.5 -184zM1102 1236q0 91 -45.5 146t-128.5 55
q-88 0 -132.5 -58t-44.5 -148q0 -84 45 -144t132 -60q63 0 103.5 32.5t55.5 77t15 99.5zM3312 1205l-40 8q-22 5 -32 7.5t-32 9.5t-34 13t-28.5 17t-25 23.5t-15 30.5t-6.5 39q0 64 53.5 100t123.5 36q175 0 193 -151l-67 -5q-9 106 -126 106q-46 0 -78 -20t-32 -56
q0 -16 7 -28.5t13.5 -19t24 -13.5t24 -9t27.5 -7l54 -14q2 -1 20 -5.5t22.5 -6t21 -6.5t22.5 -8.5t19.5 -10.5t18.5 -13.5t14.5 -16.5t13 -21t6.5 -25t3 -30q0 -79 -55.5 -116.5t-138.5 -37.5q-20 0 -38.5 2t-50 11.5t-54.5 26t-42.5 50t-22.5 79.5l70 10q1 -60 41 -94.5
t100 -34.5q52 0 86.5 26.5t34.5 72.5q0 27 -14 43.5t-31.5 23.5t-49.5 14zM378 988v224h-263v-224h-68v489h68v-207h263v207h67v-489h-67zM2277 1211h-234v-166h282v-57h-349v489h339v-58h-272v-151h234v-57zM677 307q69 0 109.5 -43t40.5 -114t-40.5 -114t-109.5 -43
q-70 0 -110.5 43t-40.5 114t40.5 114t110.5 43zM1708 0v300h115q65 0 99.5 -41t34.5 -109t-34.5 -109t-99.5 -41h-115zM2853 0v300h112q65 0 99.5 -41t34.5 -109t-34.5 -109t-99.5 -41h-112zM1715 1419h-148v-431h-63v431h-147v58h358v-58zM978 0v300h134q41 0 69 -20.5
t28 -65.5q0 -74 -70 -84l84 -130h-47l-81 127h-77v-127h-40zM2669 1477v-431h234v-58h-301v489h67zM94 0l-94 300h44l71 -236l76 236h40l77 -236l70 236h41l-91 -300h-41l-76 244l-77 -244h-40zM677 24q52 0 79.5 36t27.5 90q0 53 -27 89t-80 36t-81.5 -36t-28.5 -89
t28.5 -89.5t81.5 -36.5zM2167 0l-90 300h43l71 -236l74 236h39l78 -236l70 236h43l-94 -300h-36l-81 244l-76 -244h-41zM1749 265v-230h67q96 0 96 117q0 113 -93 113h-70zM2893 265v-230h65q96 0 96 117q0 113 -94 113h-67zM3233 0v300h210v-35h-171v-92h147v-35h-147v-103
h174v-35h-213zM1367 0v300h40v-265h151v-35h-191zM1018 265v-103h88q63 0 63 52q0 51 -63 51h-88zM2640 1v299h39v-299h-39z" />
    <glyph glyph-name="periodcentered" unicode="&#xb7;" horiz-adv-x="230" 
d="M215 404q0 -41 -29.5 -70.5t-70.5 -29.5t-70.5 29.5t-29.5 70.5t29.5 70.5t70.5 29.5t70.5 -29.5t29.5 -70.5z" />
    <glyph glyph-name="cedilla" unicode="&#xb8;" horiz-adv-x="364" 
d="M195 -161q48 0 48 31q0 39 -93 52l26 94h38l-12 -45q58 -11 91.5 -36.5t33.5 -60.5q0 -42 -36.5 -63t-90.5 -21q-72 0 -113 31l17 37q41 -19 91 -19z" />
    <glyph glyph-name="onesuperior" unicode="&#xb9;" horiz-adv-x="186" 
d="M71 385v300h-62l39 85h123v-385h-100z" />
    <glyph glyph-name="ordmasculine" unicode="&#xba;" horiz-adv-x="340" 
d="M332 630q0 -66 -45.5 -107t-116.5 -41t-116.5 41t-45.5 107t45.5 107t116.5 41t116.5 -41t45.5 -107zM229 630q0 26 -17 42.5t-42 16.5t-42 -16.5t-17 -42.5t17 -42.5t42 -16.5t42 16.5t17 42.5z" />
    <glyph glyph-name="guillemotright" unicode="&#xbb;" horiz-adv-x="449" 
d="M345 325l-117 115v120l200 -145v-180l-200 -145v120zM145 325l-117 125v120l200 -165v-160l-200 -165v120z" />
    <glyph glyph-name="onequarter" unicode="&#xbc;" horiz-adv-x="747" 
d="M591 770l-447 -770h-113l447 770h113zM694 390v-237h44v-85h-44v-68h-100v68h-161v65l195 257h66zM71 385v300h-62l39 85h123v-385h-100zM551 153h43v59z" />
    <glyph glyph-name="onehalf" unicode="&#xbd;" horiz-adv-x="754" 
d="M591 770l-447 -770h-113l447 770h113zM592 392q68 0 107 -32.5t39 -81.5q0 -21 -8.5 -43t-17.5 -34.5l-26 -34.5l-71 -86h128v-80h-299v1l156 196q28 34 28 66q0 17 -12.5 30t-31.5 13q-40 0 -58 -43l-80 46q36 83 146 83zM71 385v300h-62l39 85h123v-385h-100z" />
    <glyph glyph-name="threequarters" unicode="&#xbe;" horiz-adv-x="873" 
d="M717 770l-447 -770h-113l447 770h113zM157 463q60 0 60 43q0 41 -54 41h-66v78h67q42 0 42 33t-44 33q-41 0 -59 -34l-81 47q15 34 51 53.5t87 19.5q70 0 105.5 -33t35.5 -81q0 -50 -40 -76q51 -33 51 -87q0 -55 -41.5 -89t-116.5 -34q-110 0 -146 83l80 47
q18 -44 69 -44zM820 390v-237h44v-85h-44v-68h-100v68h-161v65l195 257h66zM677 153h43v59z" />
    <glyph glyph-name="questiondown" unicode="&#xbf;" horiz-adv-x="617" 
d="M314 -52q102 0 138 87l160 -93q-72 -166 -302 -166q-149 0 -227 67.5t-78 178.5q0 107 64.5 163.5t163.5 70.5l7 88h140l17 -228h-96q-57 -2 -82 -22t-25 -60q0 -41 31.5 -63.5t88.5 -22.5zM410 484q0 -41 -29.5 -70.5t-70.5 -29.5t-70.5 29.5t-29.5 70.5t29.5 70.5
t70.5 29.5t70.5 -29.5t29.5 -70.5z" />
    <glyph glyph-name="Agrave" unicode="&#xc0;" horiz-adv-x="810" 
d="M601 0l-49 100h-295l-48 -100h-209l403 780h4l403 -780h-209zM405 402l-65 -132h129zM462 828l-6 -38l-180 14l12 76z" />
    <glyph glyph-name="Aacute" unicode="&#xc1;" horiz-adv-x="810" 
d="M601 0l-49 100h-295l-48 -100h-209l403 780h4l403 -780h-209zM405 402l-65 -132h129zM355 790l-6 38l174 52l12 -76z" />
    <glyph glyph-name="Acircumflex" unicode="&#xc2;" horiz-adv-x="810" 
d="M601 0l-49 100h-295l-48 -100h-209l403 780h4l403 -780h-209zM234 785l-6 38l177 67l177 -67l-6 -38l-171 37zM405 402l-65 -132h129z" />
    <glyph glyph-name="Atilde" unicode="&#xc3;" horiz-adv-x="810" 
d="M601 0l-49 100h-295l-48 -100h-209l403 780h4l403 -780h-209zM405 402l-65 -132h129zM486 848q40 0 56 31h40q-9 -41 -34.5 -67.5t-66.5 -26.5q-33 0 -81.5 21.5t-73.5 21.5q-40 0 -56 -31h-40q9 41 34.5 67.5t66.5 26.5q33 0 81.5 -21.5t73.5 -21.5z" />
    <glyph glyph-name="Adieresis" unicode="&#xc4;" horiz-adv-x="810" 
d="M601 0l-49 100h-295l-48 -100h-209l403 780h4l403 -780h-209zM405 402l-65 -132h129zM256 835q0 21 14.5 35.5t35.5 14.5t35.5 -14.5t14.5 -35.5t-14.5 -35.5t-35.5 -14.5t-35.5 14.5t-14.5 35.5zM456 835q0 21 14.5 35.5t35.5 14.5t35.5 -14.5t14.5 -35.5t-14.5 -35.5
t-35.5 -14.5t-35.5 14.5t-14.5 35.5z" />
    <glyph glyph-name="Aring" unicode="&#xc5;" horiz-adv-x="810" 
d="M405 402l-65 -132h129zM455 795q0 20 -14.5 34.5t-34.5 14.5t-34.5 -14.5t-14.5 -34.5t14.5 -34.5t34.5 -14.5t34.5 14.5t14.5 34.5zM317 795q0 37 26 63t63 26t63 -26t26 -63q0 -58 -54 -82l369 -713h-209l-49 100h-295l-48 -100h-209l369 714q-24 11 -38 32.5t-14 48.5
z" />
    <glyph glyph-name="AE" unicode="&#xc6;" horiz-adv-x="1043" 
d="M601 0l-49 100h-295l-48 -100h-209l398 770h632v-170h-530l62 -120h408v-170h-320l72 -140h308v-170h-429zM405 402l-65 -132h129z" />
    <glyph glyph-name="Ccedilla" unicode="&#xc7;" horiz-adv-x="717" 
d="M404 -161q48 0 48 31q0 39 -93 52l18 64q-166 12 -266.5 120.5t-100.5 278.5q0 180 112 290t293 110q184 0 296 -114l-139 -139q-57 68 -157 68q-93 0 -149 -58t-56 -157t56 -157t149 -58q101 0 157 68l140 -140q-113 -113 -297 -113h-1l-3 -14q58 -11 91.5 -36.5
t33.5 -60.5q0 -42 -36.5 -63t-90.5 -21q-72 0 -113 31l17 37q41 -19 91 -19z" />
    <glyph glyph-name="Egrave" unicode="&#xc8;" horiz-adv-x="578" 
d="M565 170v-170h-540v770h540v-170h-340v-120h280v-170h-280v-140h340zM352 828l-6 -38l-180 14l12 76z" />
    <glyph glyph-name="Eacute" unicode="&#xc9;" horiz-adv-x="578" 
d="M565 170v-170h-540v770h540v-170h-340v-120h280v-170h-280v-140h340zM245 790l-6 38l174 52l12 -76z" />
    <glyph glyph-name="Ecircumflex" unicode="&#xca;" horiz-adv-x="578" 
d="M565 170v-170h-540v770h540v-170h-340v-120h280v-170h-280v-140h340zM124 785l-6 38l177 67l177 -67l-6 -38l-171 37z" />
    <glyph glyph-name="Edieresis" unicode="&#xcb;" horiz-adv-x="578" 
d="M565 170v-170h-540v770h540v-170h-340v-120h280v-170h-280v-140h340zM146 835q0 21 14.5 35.5t35.5 14.5t35.5 -14.5t14.5 -35.5t-14.5 -35.5t-35.5 -14.5t-35.5 14.5t-14.5 35.5zM346 835q0 21 14.5 35.5t35.5 14.5t35.5 -14.5t14.5 -35.5t-14.5 -35.5t-35.5 -14.5
t-35.5 14.5t-14.5 35.5z" />
    <glyph glyph-name="Igrave" unicode="&#xcc;" horiz-adv-x="250" 
d="M225 770v-770h-200v770h200zM181 828l-6 -38l-180 14l12 76z" />
    <glyph glyph-name="Iacute" unicode="&#xcd;" horiz-adv-x="250" 
d="M225 770v-770h-200v770h200zM74 790l-6 38l174 52l12 -76z" />
    <glyph glyph-name="Icircumflex" unicode="&#xce;" horiz-adv-x="250" 
d="M225 770v-770h-200v770h200zM-47 785l-6 38l177 67l177 -67l-6 -38l-171 37z" />
    <glyph glyph-name="Idieresis" unicode="&#xcf;" horiz-adv-x="250" 
d="M225 770v-770h-200v770h200zM5 835q0 21 14.5 35.5t35.5 14.5t35.5 -14.5t14.5 -35.5t-14.5 -35.5t-35.5 -14.5t-35.5 14.5t-14.5 35.5zM145 835q0 21 14.5 35.5t35.5 14.5t35.5 -14.5t14.5 -35.5t-14.5 -35.5t-35.5 -14.5t-35.5 14.5t-14.5 35.5z" />
    <glyph glyph-name="Eth" unicode="&#xd0;" horiz-adv-x="828" 
d="M818 385q0 -168 -107 -276.5t-268 -108.5h-335v320h-100v150h100v300h335q161 0 268 -108.5t107 -276.5zM478 470v-150h-170v-150h100q96 0 153 58.5t57 156.5t-57 156.5t-153 58.5h-100v-130h170z" />
    <glyph glyph-name="Ntilde" unicode="&#xd1;" horiz-adv-x="770" 
d="M29 780l526 -410l-10 400h200v-780h-4l-526 410l10 -400h-200v780h4zM456 848q40 0 56 31h40q-9 -41 -34.5 -67.5t-66.5 -26.5q-33 0 -81.5 21.5t-73.5 21.5q-40 0 -56 -31h-40q9 41 34.5 67.5t66.5 26.5q33 0 81.5 -21.5t73.5 -21.5z" />
    <glyph glyph-name="Ograve" unicode="&#xd2;" horiz-adv-x="830" 
d="M620 385q0 99 -56 157t-149 58t-149 -58t-56 -157t56 -157t149 -58t149 58t56 157zM820 385q0 -180 -112 -290t-293 -110t-293 110t-112 290t112 290t293 110t293 -110t112 -290zM472 828l-6 -38l-180 14l12 76z" />
    <glyph glyph-name="Oacute" unicode="&#xd3;" horiz-adv-x="830" 
d="M620 385q0 99 -56 157t-149 58t-149 -58t-56 -157t56 -157t149 -58t149 58t56 157zM820 385q0 -180 -112 -290t-293 -110t-293 110t-112 290t112 290t293 110t293 -110t112 -290zM365 790l-6 38l174 52l12 -76z" />
    <glyph glyph-name="Ocircumflex" unicode="&#xd4;" horiz-adv-x="830" 
d="M820 385q0 -180 -112 -290t-293 -110t-293 110t-112 290t112 290t293 110t293 -110t112 -290zM620 385q0 99 -56 157t-149 58t-149 -58t-56 -157t56 -157t149 -58t149 58t56 157zM244 785l-6 38l177 67l177 -67l-6 -38l-171 37z" />
    <glyph glyph-name="Otilde" unicode="&#xd5;" horiz-adv-x="830" 
d="M620 385q0 99 -56 157t-149 58t-149 -58t-56 -157t56 -157t149 -58t149 58t56 157zM820 385q0 -180 -112 -290t-293 -110t-293 110t-112 290t112 290t293 110t293 -110t112 -290zM496 848q40 0 56 31h40q-9 -41 -34.5 -67.5t-66.5 -26.5q-33 0 -81.5 21.5t-73.5 21.5
q-40 0 -56 -31h-40q9 41 34.5 67.5t66.5 26.5q33 0 81.5 -21.5t73.5 -21.5z" />
    <glyph glyph-name="Odieresis" unicode="&#xd6;" horiz-adv-x="830" 
d="M620 385q0 99 -56 157t-149 58t-149 -58t-56 -157t56 -157t149 -58t149 58t56 157zM820 385q0 -180 -112 -290t-293 -110t-293 110t-112 290t112 290t293 110t293 -110t112 -290zM266 835q0 21 14.5 35.5t35.5 14.5t35.5 -14.5t14.5 -35.5t-14.5 -35.5t-35.5 -14.5
t-35.5 14.5t-14.5 35.5zM466 835q0 21 14.5 35.5t35.5 14.5t35.5 -14.5t14.5 -35.5t-14.5 -35.5t-35.5 -14.5t-35.5 14.5t-14.5 35.5z" />
    <glyph glyph-name="multiply" unicode="&#xd7;" horiz-adv-x="546" 
d="M428 134l-155 155l-155 -155l-96 96l155 155l-155 155l96 96l155 -155l155 155l96 -96l-155 -155l155 -155z" />
    <glyph glyph-name="Oslash" unicode="&#xd8;" horiz-adv-x="830" 
d="M790 770l-80 -97q110 -110 110 -288q0 -180 -112 -290t-293 -110q-130 0 -228 59l-37 -44h-110l80 96q-110 110 -110 289q0 180 112 290t293 110q131 0 228 -60l37 45h110zM620 385q0 80 -38 135l-271 -326q45 -24 104 -24q93 0 149 58t56 157zM210 385q0 -82 38 -135
l270 326q-46 24 -103 24q-93 0 -149 -58t-56 -157z" />
    <glyph glyph-name="Ugrave" unicode="&#xd9;" horiz-adv-x="666" 
d="M333 -15q-137 0 -223.5 82t-86.5 222v481h200v-490q0 -52 30 -81t80 -29t80 29t30 81v490h200v-481q0 -140 -86.5 -222t-223.5 -82zM390 828l-6 -38l-180 14l12 76z" />
    <glyph glyph-name="Uacute" unicode="&#xda;" horiz-adv-x="666" 
d="M333 -15q-137 0 -223.5 82t-86.5 222v481h200v-490q0 -52 30 -81t80 -29t80 29t30 81v490h200v-481q0 -140 -86.5 -222t-223.5 -82zM283 790l-6 38l174 52l12 -76z" />
    <glyph glyph-name="Ucircumflex" unicode="&#xdb;" horiz-adv-x="666" 
d="M333 -15q-137 0 -223.5 82t-86.5 222v481h200v-490q0 -52 30 -81t80 -29t80 29t30 81v490h200v-481q0 -140 -86.5 -222t-223.5 -82zM162 785l-6 38l177 67l177 -67l-6 -38l-171 37z" />
    <glyph glyph-name="Udieresis" unicode="&#xdc;" horiz-adv-x="666" 
d="M333 -15q-137 0 -223.5 82t-86.5 222v481h200v-490q0 -52 30 -81t80 -29t80 29t30 81v490h200v-481q0 -140 -86.5 -222t-223.5 -82zM184 835q0 21 14.5 35.5t35.5 14.5t35.5 -14.5t14.5 -35.5t-14.5 -35.5t-35.5 -14.5t-35.5 14.5t-14.5 35.5zM384 835q0 21 14.5 35.5
t35.5 14.5t35.5 -14.5t14.5 -35.5t-14.5 -35.5t-35.5 -14.5t-35.5 14.5t-14.5 35.5z" />
    <glyph glyph-name="Yacute" unicode="&#xdd;" horiz-adv-x="760" 
d="M194 770l188 -344l188 344h207l-295 -500v-270h-200v270l-295 500h207zM332 790l-6 38l174 52l12 -76z" />
    <glyph glyph-name="Thorn" unicode="&#xde;" horiz-adv-x="622" 
d="M615 395q0 -106 -74.5 -180.5t-180.5 -74.5h-135v-140h-200v770h200v-120h135q106 0 180.5 -74.5t74.5 -180.5zM330 480h-105v-170h105q35 0 60 25t25 60t-25 60t-60 25z" />
    <glyph glyph-name="germandbls" unicode="&#xdf;" horiz-adv-x="609" 
d="M228 23l56 144q20 -12 46 -12q33 0 56.5 25.5t23.5 72.5q0 105 -112 105h-37v133h32q36 0 57.5 20.5t21.5 57.5q0 34 -24.5 57t-64.5 23q-43 0 -66.5 -24t-23.5 -70v-555h-180v563q0 120 74.5 180.5t197.5 60.5q70 0 131 -22.5t102.5 -73.5t41.5 -121q0 -49 -22.5 -88
t-61.5 -60q126 -59 126 -206q0 -111 -72 -176t-166 -65q-39 0 -78 9t-58 22z" />
    <glyph glyph-name="agrave" unicode="&#xe0;" 
d="M9 285q0 124 82.5 210.5t204.5 86.5q98 0 178 -51v39h177v-570h-176v40q-79 -52 -179 -52q-122 0 -204.5 86.5t-82.5 210.5zM475 285q0 60 -42.5 102.5t-102.5 42.5q-62 0 -103.5 -41.5t-41.5 -103.5t41.5 -103.5t103.5 -41.5q60 0 102.5 42.5t42.5 102.5zM335 631
l-15 -26l-185 55l55 96z" />
    <glyph glyph-name="aacute" unicode="&#xe1;" 
d="M9 285q0 124 82.5 210.5t204.5 86.5q98 0 178 -51v39h177v-570h-176v40q-79 -52 -179 -52q-122 0 -204.5 86.5t-82.5 210.5zM475 285q0 60 -42.5 102.5t-102.5 42.5q-62 0 -103.5 -41.5t-41.5 -103.5t41.5 -103.5t103.5 -41.5q60 0 102.5 42.5t42.5 102.5zM320 605
l-15 26l145 125l55 -96z" />
    <glyph glyph-name="acircumflex" unicode="&#xe2;" 
d="M9 285q0 124 82.5 210.5t204.5 86.5q98 0 178 -51v39h177v-570h-176v40q-79 -52 -179 -52q-122 0 -204.5 86.5t-82.5 210.5zM475 285q0 60 -42.5 102.5t-102.5 42.5q-62 0 -103.5 -41.5t-41.5 -103.5t41.5 -103.5t103.5 -41.5q60 0 102.5 42.5t42.5 102.5zM190 605
l-15 26l145 125l145 -125l-15 -26l-130 52z" />
    <glyph glyph-name="atilde" unicode="&#xe3;" 
d="M9 285q0 124 82.5 210.5t204.5 86.5q98 0 178 -51v39h177v-570h-176v40q-79 -52 -179 -52q-122 0 -204.5 86.5t-82.5 210.5zM475 285q0 60 -42.5 102.5t-102.5 42.5q-62 0 -103.5 -41.5t-41.5 -103.5t41.5 -103.5t103.5 -41.5q60 0 102.5 42.5t42.5 102.5zM233 751
q45 0 98 -27.5t80 -27.5q51 0 62 43h46q-7 -61 -36.5 -93.5t-75.5 -32.5q-45 0 -98 27.5t-80 27.5q-51 0 -62 -43h-46q7 61 36.5 93.5t75.5 32.5z" />
    <glyph glyph-name="adieresis" unicode="&#xe4;" 
d="M9 285q0 124 82.5 210.5t204.5 86.5q98 0 178 -51v39h177v-570h-176v40q-79 -52 -179 -52q-122 0 -204.5 86.5t-82.5 210.5zM475 285q0 60 -42.5 102.5t-102.5 42.5q-62 0 -103.5 -41.5t-41.5 -103.5t41.5 -103.5t103.5 -41.5q60 0 102.5 42.5t42.5 102.5zM350 702
q0 41 29.5 70.5t70.5 29.5t70.5 -29.5t29.5 -70.5t-29.5 -70.5t-70.5 -29.5t-70.5 29.5t-29.5 70.5zM90 702q0 41 29.5 70.5t70.5 29.5t70.5 -29.5t29.5 -70.5t-29.5 -70.5t-70.5 -29.5t-70.5 29.5t-29.5 70.5z" />
    <glyph glyph-name="aring" unicode="&#xe5;" 
d="M9 285q0 124 82.5 210.5t204.5 86.5q98 0 178 -51v39h177v-570h-176v40q-79 -52 -179 -52q-122 0 -204.5 86.5t-82.5 210.5zM475 285q0 60 -42.5 102.5t-102.5 42.5q-62 0 -103.5 -41.5t-41.5 -103.5t41.5 -103.5t103.5 -41.5q60 0 102.5 42.5t42.5 102.5zM231 691
q0 37 26 63t63 26t63 -26t26 -63t-26 -63t-63 -26t-63 26t-26 63zM369 691q0 20 -14.5 34.5t-34.5 14.5t-34.5 -14.5t-14.5 -34.5t14.5 -34.5t34.5 -14.5t34.5 14.5t14.5 34.5z" />
    <glyph glyph-name="ae" unicode="&#xe6;" horiz-adv-x="995" 
d="M712 136q113 0 174 70l100 -99q-96 -119 -279 -119q-146 0 -228 89q-87 -89 -226 -89q-102 0 -173 45t-71 134q0 83 62 130.5t166 47.5h156q-4 46 -34 67.5t-97 21.5q-90 0 -134 -55l-100 99q82 104 251 104q144 0 219 -75q82 75 200 75q131 0 209.5 -85.5t78.5 -211.5
v-60h-409q26 -89 135 -89zM695 434q-97 0 -120 -89h231q-17 89 -111 89zM264 136q101 0 124 89h-118q-26 0 -42.5 -11.5t-16.5 -31.5q0 -46 53 -46z" />
    <glyph glyph-name="ccedilla" unicode="&#xe7;" horiz-adv-x="546" 
d="M304 -161q48 0 48 31q0 39 -93 52l19 68q-120 11 -194.5 92t-74.5 203q0 131 85.5 214t220.5 83q149 0 225 -94l-121 -121q-33 53 -104 53q-59 0 -94.5 -36t-35.5 -99t35.5 -99t94.5 -36q71 0 104 53l121 -121q-76 -94 -225 -94l-4 -17q58 -11 91.5 -36.5t33.5 -60.5
q0 -42 -36.5 -63t-90.5 -21q-72 0 -113 31l17 37q41 -19 91 -19z" />
    <glyph glyph-name="egrave" unicode="&#xe8;" horiz-adv-x="610" 
d="M327 136q113 0 174 70l100 -99q-96 -119 -279 -119q-147 0 -230 86t-83 211q0 122 86 209.5t218 87.5q131 0 209.5 -85.5t78.5 -211.5v-60h-409q26 -89 135 -89zM310 434q-97 0 -120 -89h231q-17 89 -111 89zM328 631l-15 -26l-185 55l55 96z" />
    <glyph glyph-name="eacute" unicode="&#xe9;" horiz-adv-x="610" 
d="M327 136q113 0 174 70l100 -99q-96 -119 -279 -119q-147 0 -230 86t-83 211q0 122 86 209.5t218 87.5q131 0 209.5 -85.5t78.5 -211.5v-60h-409q26 -89 135 -89zM310 434q-97 0 -120 -89h231q-17 89 -111 89zM313 605l-15 26l145 125l55 -96z" />
    <glyph glyph-name="ecircumflex" unicode="&#xea;" horiz-adv-x="610" 
d="M327 136q113 0 174 70l100 -99q-96 -119 -279 -119q-147 0 -230 86t-83 211q0 122 86 209.5t218 87.5q131 0 209.5 -85.5t78.5 -211.5v-60h-409q26 -89 135 -89zM183 605l-15 26l145 125l145 -125l-15 -26l-130 52zM310 434q-97 0 -120 -89h231q-17 89 -111 89z" />
    <glyph glyph-name="edieresis" unicode="&#xeb;" horiz-adv-x="610" 
d="M327 136q113 0 174 70l100 -99q-96 -119 -279 -119q-147 0 -230 86t-83 211q0 122 86 209.5t218 87.5q131 0 209.5 -85.5t78.5 -211.5v-60h-409q26 -89 135 -89zM83 702q0 41 29.5 70.5t70.5 29.5t70.5 -29.5t29.5 -70.5t-29.5 -70.5t-70.5 -29.5t-70.5 29.5t-29.5 70.5z
M343 702q0 41 29.5 70.5t70.5 29.5t70.5 -29.5t29.5 -70.5t-29.5 -70.5t-70.5 -29.5t-70.5 29.5t-29.5 70.5zM310 434q-97 0 -120 -89h231q-17 89 -111 89z" />
    <glyph glyph-name="igrave" unicode="&#xec;" horiz-adv-x="220" 
d="M200 570v-570h-180v570h180zM125 631l-15 -26l-185 55l55 96z" />
    <glyph glyph-name="iacute" unicode="&#xed;" horiz-adv-x="220" 
d="M200 570v-570h-180v570h180zM110 605l-15 26l145 125l55 -96z" />
    <glyph glyph-name="icircumflex" unicode="&#xee;" horiz-adv-x="220" 
d="M200 570v-570h-180v570h180zM-20 605l-15 26l145 125l145 -125l-15 -26l-130 52z" />
    <glyph glyph-name="idieresis" unicode="&#xef;" horiz-adv-x="220" 
d="M200 570v-570h-180v570h180zM-100 702q0 41 29.5 70.5t70.5 29.5t70.5 -29.5t29.5 -70.5t-29.5 -70.5t-70.5 -29.5t-70.5 29.5t-29.5 70.5zM120 702q0 41 29.5 70.5t70.5 29.5t70.5 -29.5t29.5 -70.5t-29.5 -70.5t-70.5 -29.5t-70.5 29.5t-29.5 70.5z" />
    <glyph glyph-name="eth" unicode="&#xf0;" horiz-adv-x="630" 
d="M621 285q0 -131 -85.5 -214t-220.5 -83t-220.5 83t-85.5 214q0 129 84.5 213t201.5 84q15 0 22 -1q-44 31 -101 55l-176 -86v70l92 45q-22 6 -57 14t-45 11l115 114q94 -23 162 -53l128 63v-70l-57 -28q243 -143 243 -431zM185 285q0 -63 35.5 -99t94.5 -36t94.5 36
t35.5 99t-35.5 99t-94.5 36t-94.5 -36t-35.5 -99z" />
    <glyph glyph-name="ntilde" unicode="&#xf1;" horiz-adv-x="569" 
d="M377 0v359q0 34 -24 55.5t-60 21.5q-43 0 -71 -22.5t-29 -61.5v-352h-180v570h176v-46q63 58 169 58q83 0 141 -51t58 -135v-396h-180zM197 751q44 0 97.5 -27.5t80.5 -27.5q51 0 62 43h46q-7 -61 -36.5 -93.5t-75.5 -32.5q-45 0 -98.5 27.5t-79.5 27.5q-51 0 -62 -43
h-46q7 61 36.5 93.5t75.5 32.5z" />
    <glyph glyph-name="ograve" unicode="&#xf2;" horiz-adv-x="630" 
d="M621 285q0 -131 -85.5 -214t-220.5 -83t-220.5 83t-85.5 214t85.5 214t220.5 83t220.5 -83t85.5 -214zM185 285q0 -63 35.5 -99t94.5 -36t94.5 36t35.5 99t-35.5 99t-94.5 36t-94.5 -36t-35.5 -99zM330 631l-15 -26l-185 55l55 96z" />
    <glyph glyph-name="oacute" unicode="&#xf3;" horiz-adv-x="630" 
d="M621 285q0 -131 -85.5 -214t-220.5 -83t-220.5 83t-85.5 214t85.5 214t220.5 83t220.5 -83t85.5 -214zM185 285q0 -63 35.5 -99t94.5 -36t94.5 36t35.5 99t-35.5 99t-94.5 36t-94.5 -36t-35.5 -99zM315 605l-15 26l145 125l55 -96z" />
    <glyph glyph-name="ocircumflex" unicode="&#xf4;" horiz-adv-x="630" 
d="M621 285q0 -131 -85.5 -214t-220.5 -83t-220.5 83t-85.5 214t85.5 214t220.5 83t220.5 -83t85.5 -214zM185 285q0 -63 35.5 -99t94.5 -36t94.5 36t35.5 99t-35.5 99t-94.5 36t-94.5 -36t-35.5 -99zM185 605l-15 26l145 125l145 -125l-15 -26l-130 52z" />
    <glyph glyph-name="otilde" unicode="&#xf5;" horiz-adv-x="630" 
d="M621 285q0 -131 -85.5 -214t-220.5 -83t-220.5 83t-85.5 214t85.5 214t220.5 83t220.5 -83t85.5 -214zM185 285q0 -63 35.5 -99t94.5 -36t94.5 36t35.5 99t-35.5 99t-94.5 36t-94.5 -36t-35.5 -99zM228 751q44 0 98 -27.5t80 -27.5q51 0 62 43h46q-7 -61 -36.5 -93.5
t-75.5 -32.5q-44 0 -98 27.5t-80 27.5q-51 0 -62 -43h-46q7 61 36.5 93.5t75.5 32.5z" />
    <glyph glyph-name="odieresis" unicode="&#xf6;" horiz-adv-x="630" 
d="M621 285q0 -131 -85.5 -214t-220.5 -83t-220.5 83t-85.5 214t85.5 214t220.5 83t220.5 -83t85.5 -214zM185 285q0 -63 35.5 -99t94.5 -36t94.5 36t35.5 99t-35.5 99t-94.5 36t-94.5 -36t-35.5 -99zM85 702q0 41 29.5 70.5t70.5 29.5t70.5 -29.5t29.5 -70.5t-29.5 -70.5
t-70.5 -29.5t-70.5 29.5t-29.5 70.5zM345 702q0 41 29.5 70.5t70.5 29.5t70.5 -29.5t29.5 -70.5t-29.5 -70.5t-70.5 -29.5t-70.5 29.5t-29.5 70.5z" />
    <glyph glyph-name="divide" unicode="&#xf7;" horiz-adv-x="540" 
d="M25 453h490v-136h-490v136zM170 590q0 41 29.5 70.5t70.5 29.5t70.5 -29.5t29.5 -70.5t-29.5 -70.5t-70.5 -29.5t-70.5 29.5t-29.5 70.5zM170 180q0 41 29.5 70.5t70.5 29.5t70.5 -29.5t29.5 -70.5t-29.5 -70.5t-70.5 -29.5t-70.5 29.5t-29.5 70.5z" />
    <glyph glyph-name="oslash" unicode="&#xf8;" horiz-adv-x="630" 
d="M602 570l-63 -75q82 -82 82 -210q0 -131 -85.5 -214t-220.5 -83q-93 0 -164 40l-23 -28h-100l62 75q-81 83 -81 210q0 131 85.5 214t220.5 83q90 0 163 -41l24 29h100zM445 285q0 43 -18 75l-167 -201q24 -9 55 -9q59 0 94.5 36t35.5 99zM185 285q0 -44 17 -75l167 200
q-23 10 -54 10q-59 0 -94.5 -36t-35.5 -99z" />
    <glyph glyph-name="ugrave" unicode="&#xf9;" horiz-adv-x="569" 
d="M192 570v-359q0 -34 24 -55.5t60 -21.5q44 0 72 23.5t28 64.5v348h180v-570h-176v46q-61 -58 -169 -58q-83 0 -141 51t-58 135v396h180zM298 631l-15 -26l-185 55l55 96z" />
    <glyph glyph-name="uacute" unicode="&#xfa;" horiz-adv-x="569" 
d="M192 570v-359q0 -34 24 -55.5t60 -21.5q44 0 72 23.5t28 64.5v348h180v-570h-176v46q-61 -58 -169 -58q-83 0 -141 51t-58 135v396h180zM283 605l-15 26l145 125l55 -96z" />
    <glyph glyph-name="ucircumflex" unicode="&#xfb;" horiz-adv-x="569" 
d="M192 570v-363q1 -33 24.5 -53t59.5 -20q43 0 71 22.5t29 61.5v352h180v-570h-176v46q-61 -58 -169 -58q-83 0 -141 51t-58 135v396h180zM153 605l-15 26l145 125l145 -125l-15 -26l-130 52z" />
    <glyph glyph-name="udieresis" unicode="&#xfc;" horiz-adv-x="569" 
d="M192 570v-359q0 -34 24 -55.5t60 -21.5q44 0 72 23.5t28 64.5v348h180v-570h-176v46q-61 -58 -169 -58q-83 0 -141 51t-58 135v396h180zM313 702q0 41 29.5 70.5t70.5 29.5t70.5 -29.5t29.5 -70.5t-29.5 -70.5t-70.5 -29.5t-70.5 29.5t-29.5 70.5zM53 702q0 41 29.5 70.5
t70.5 29.5t70.5 -29.5t29.5 -70.5t-29.5 -70.5t-70.5 -29.5t-70.5 29.5t-29.5 70.5z" />
    <glyph glyph-name="yacute" unicode="&#xfd;" horiz-adv-x="692" 
d="M328 -210h-212l113 237l-227 543h204l127 -324l146 324h210zM345 605l-15 26l145 125l55 -96z" />
    <glyph glyph-name="thorn" unicode="&#xfe;" 
d="M655 285q0 -124 -82.5 -210.5t-204.5 -86.5q-100 0 -175 49v-247h-180v1000h180v-257q77 49 175 49q122 0 204.5 -86.5t82.5 -210.5zM189 285q0 -60 42.5 -102.5t102.5 -42.5q62 0 103.5 41.5t41.5 103.5t-41.5 103.5t-103.5 41.5q-60 0 -102.5 -42.5t-42.5 -102.5z" />
    <glyph glyph-name="ydieresis" unicode="&#xff;" horiz-adv-x="692" 
d="M328 -210h-212l113 237l-227 543h204l127 -324l146 324h210zM375 702q0 41 29.5 70.5t70.5 29.5t70.5 -29.5t29.5 -70.5t-29.5 -70.5t-70.5 -29.5t-70.5 29.5t-29.5 70.5zM115 702q0 41 29.5 70.5t70.5 29.5t70.5 -29.5t29.5 -70.5t-29.5 -70.5t-70.5 -29.5t-70.5 29.5
t-29.5 70.5z" />
    <glyph glyph-name="Amacron" unicode="&#x100;" horiz-adv-x="810" 
d="M601 0l-49 100h-295l-48 -100h-209l403 780h4l403 -780h-209zM405 402l-65 -132h129zM546 879v-82h-280v82h280z" />
    <glyph glyph-name="amacron" unicode="&#x101;" 
d="M9 285q0 124 82.5 210.5t204.5 86.5q98 0 178 -51v39h177v-570h-176v40q-79 -52 -179 -52q-122 0 -204.5 86.5t-82.5 210.5zM475 285q0 60 -42.5 102.5t-102.5 42.5q-62 0 -103.5 -41.5t-41.5 -103.5t41.5 -103.5t103.5 -41.5q60 0 102.5 42.5t42.5 102.5zM460 713v-82
h-280v82h280z" />
    <glyph glyph-name="Abreve" unicode="&#x102;" horiz-adv-x="810" 
d="M601 0l-49 100h-295l-48 -100h-209l403 780h4l403 -780h-209zM405 402l-65 -132h129zM406 785q-65 0 -113.5 26t-61.5 80h62q7 -22 40 -32.5t73 -10.5t73 10.5t40 32.5h62q-13 -54 -61.5 -80t-113.5 -26z" />
    <glyph glyph-name="abreve" unicode="&#x103;" 
d="M9 285q0 124 82.5 210.5t204.5 86.5q98 0 178 -51v39h177v-570h-176v40q-79 -52 -179 -52q-122 0 -204.5 86.5t-82.5 210.5zM475 285q0 60 -42.5 102.5t-102.5 42.5q-62 0 -103.5 -41.5t-41.5 -103.5t41.5 -103.5t103.5 -41.5q60 0 102.5 42.5t42.5 102.5zM320 610
q-64 0 -111 36.5t-54 94.5h62q5 -27 35 -41t68 -14t68 14t35 41h62q-7 -58 -54 -94.5t-111 -36.5z" />
    <glyph glyph-name="Aogonek" unicode="&#x104;" horiz-adv-x="837" 
d="M758 -161q44 0 79 19l17 -37q-45 -31 -108 -31q-66 0 -106.5 26t-40.5 75q0 34 24 64l-71 145h-295l-48 -100h-209l403 780h4l403 -780q-123 -26 -123 -102q0 -28 19 -43.5t52 -15.5zM405 402l-65 -132h129z" />
    <glyph glyph-name="aogonek" unicode="&#x105;" 
d="M599 -161q44 0 79 19l17 -37q-45 -31 -108 -31q-66 0 -106.5 26t-40.5 75q0 41 35 76v73q-79 -52 -179 -52q-122 0 -204.5 86.5t-82.5 210.5t82.5 210.5t204.5 86.5q98 0 178 -51v39h177v-570q-123 -26 -123 -102q0 -28 19 -43.5t52 -15.5zM475 285q0 60 -42.5 102.5
t-102.5 42.5q-62 0 -103.5 -41.5t-41.5 -103.5t41.5 -103.5t103.5 -41.5q60 0 102.5 42.5t42.5 102.5z" />
    <glyph glyph-name="Cacute" unicode="&#x106;" horiz-adv-x="717" 
d="M10 385q0 180 112 290t293 110q184 0 296 -114l-139 -139q-57 68 -157 68q-93 0 -149 -58t-56 -157t56 -157t149 -58q101 0 157 68l140 -140q-113 -113 -297 -113q-181 0 -293 110t-112 290zM365 790l-6 38l174 52l12 -76z" />
    <glyph glyph-name="cacute" unicode="&#x107;" horiz-adv-x="546" 
d="M185 285q0 -63 35.5 -99t94.5 -36q71 0 104 53l121 -121q-76 -94 -225 -94q-135 0 -220.5 83t-85.5 214t85.5 214t220.5 83q149 0 225 -94l-121 -121q-33 53 -104 53q-59 0 -94.5 -36t-35.5 -99zM300 605l-15 26l145 125l55 -96z" />
    <glyph glyph-name="Ccircumflex" unicode="&#x108;" horiz-adv-x="717" 
d="M10 385q0 180 112 290t293 110q184 0 296 -114l-139 -139q-57 68 -157 68q-93 0 -149 -58t-56 -157t56 -157t149 -58q101 0 157 68l140 -140q-113 -113 -297 -113q-181 0 -293 110t-112 290zM244 785l-6 38l177 67l177 -67l-6 -38l-171 37z" />
    <glyph glyph-name="ccircumflex" unicode="&#x109;" horiz-adv-x="546" 
d="M185 285q0 -63 35.5 -99t94.5 -36q71 0 104 53l121 -121q-76 -94 -225 -94q-135 0 -220.5 83t-85.5 214t85.5 214t220.5 83q149 0 225 -94l-121 -121q-33 53 -104 53q-59 0 -94.5 -36t-35.5 -99zM170 605l-15 26l145 125l145 -125l-15 -26l-130 52z" />
    <glyph glyph-name="Cdotaccent" unicode="&#x10a;" horiz-adv-x="717" 
d="M10 385q0 180 112 290t293 110q184 0 296 -114l-139 -139q-57 68 -157 68q-93 0 -149 -58t-56 -157t56 -157t149 -58q101 0 157 68l140 -140q-113 -113 -297 -113q-181 0 -293 110t-112 290zM365 840q0 21 14.5 35.5t35.5 14.5t35.5 -14.5t14.5 -35.5t-14.5 -35.5
t-35.5 -14.5t-35.5 14.5t-14.5 35.5z" />
    <glyph glyph-name="cdotaccent" unicode="&#x10b;" horiz-adv-x="546" 
d="M185 285q0 -63 35.5 -99t94.5 -36q71 0 104 53l121 -121q-76 -94 -225 -94q-135 0 -220.5 83t-85.5 214t85.5 214t220.5 83q149 0 225 -94l-121 -121q-33 53 -104 53q-59 0 -94.5 -36t-35.5 -99zM200 702q0 41 29.5 70.5t70.5 29.5t70.5 -29.5t29.5 -70.5t-29.5 -70.5
t-70.5 -29.5t-70.5 29.5t-29.5 70.5z" />
    <glyph glyph-name="Ccaron" unicode="&#x10c;" horiz-adv-x="717" 
d="M10 385q0 180 112 290t293 110q184 0 296 -114l-139 -139q-57 68 -157 68q-93 0 -149 -58t-56 -157t56 -157t149 -58q101 0 157 68l140 -140q-113 -113 -297 -113q-181 0 -293 110t-112 290zM586 895l6 -38l-177 -67l-177 67l6 38l171 -38z" />
    <glyph glyph-name="ccaron" unicode="&#x10d;" horiz-adv-x="546" 
d="M185 285q0 -63 35.5 -99t94.5 -36q71 0 104 53l121 -121q-76 -94 -225 -94q-135 0 -220.5 83t-85.5 214t85.5 214t220.5 83q149 0 225 -94l-121 -121q-33 53 -104 53q-59 0 -94.5 -36t-35.5 -99zM155 728l15 26l130 -53l130 53l15 -26l-145 -125z" />
    <glyph glyph-name="Dcaron" unicode="&#x10e;" horiz-adv-x="745" 
d="M735 385q0 -168 -107 -276.5t-268 -108.5h-335v770h335q161 0 268 -108.5t107 -276.5zM325 600h-100v-430h100q96 0 153 58.5t57 156.5t-57 156.5t-153 58.5zM506 895l6 -38l-177 -67l-177 67l6 38l171 -38z" />
    <glyph glyph-name="dcaron" unicode="&#x10f;" horiz-adv-x="684" 
d="M9 285q0 124 82.5 210.5t204.5 86.5q98 0 175 -49v257h180v-790h-176v40q-79 -52 -179 -52q-122 0 -204.5 86.5t-82.5 210.5zM475 285q0 60 -42.5 102.5t-102.5 42.5q-62 0 -103.5 -41.5t-41.5 -103.5t41.5 -103.5t103.5 -41.5q60 0 102.5 42.5t42.5 102.5zM708 790h82
l-30 -170h-59z" />
    <glyph glyph-name="Dcroat" unicode="&#x110;" horiz-adv-x="828" 
d="M818 385q0 -168 -107 -276.5t-268 -108.5h-335v320h-100v150h100v300h335q161 0 268 -108.5t107 -276.5zM478 470v-150h-170v-150h100q96 0 153 58.5t57 156.5t-57 156.5t-153 58.5h-100v-130h170z" />
    <glyph glyph-name="dcroat" unicode="&#x111;" horiz-adv-x="703" 
d="M715 740v-130h-64v-610h-176v40q-79 -52 -179 -52q-122 0 -204.5 86.5t-82.5 210.5t82.5 210.5t204.5 86.5q98 0 175 -49v77h-116v130h116v50h180v-50h64zM475 285q0 60 -42.5 102.5t-102.5 42.5q-62 0 -103.5 -41.5t-41.5 -103.5t41.5 -103.5t103.5 -41.5
q60 0 102.5 42.5t42.5 102.5z" />
    <glyph glyph-name="Emacron" unicode="&#x112;" horiz-adv-x="578" 
d="M565 170v-170h-540v770h540v-170h-340v-120h280v-170h-280v-140h340zM436 879v-82h-280v82h280z" />
    <glyph glyph-name="emacron" unicode="&#x113;" horiz-adv-x="610" 
d="M327 136q113 0 174 70l100 -99q-96 -119 -279 -119q-147 0 -230 86t-83 211q0 122 86 209.5t218 87.5q131 0 209.5 -85.5t78.5 -211.5v-60h-409q26 -89 135 -89zM310 434q-97 0 -120 -89h231q-17 89 -111 89zM453 713v-82h-280v82h280z" />
    <glyph glyph-name="Ebreve" unicode="&#x114;" horiz-adv-x="578" 
d="M565 170v-170h-540v770h540v-170h-340v-120h280v-170h-280v-140h340zM296 785q-65 0 -113.5 26t-61.5 80h62q7 -22 40 -32.5t73 -10.5t73 10.5t40 32.5h62q-13 -54 -61.5 -80t-113.5 -26z" />
    <glyph glyph-name="ebreve" unicode="&#x115;" horiz-adv-x="610" 
d="M327 136q113 0 174 70l100 -99q-96 -119 -279 -119q-147 0 -230 86t-83 211q0 122 86 209.5t218 87.5q131 0 209.5 -85.5t78.5 -211.5v-60h-409q26 -89 135 -89zM310 434q-97 0 -120 -89h231q-17 89 -111 89zM313 610q-64 0 -111 36.5t-54 94.5h62q5 -27 35 -41t68 -14
t68 14t35 41h62q-7 -58 -54 -94.5t-111 -36.5z" />
    <glyph glyph-name="Edotaccent" unicode="&#x116;" horiz-adv-x="578" 
d="M565 170v-170h-540v770h540v-170h-340v-120h280v-170h-280v-140h340zM246 835q0 21 14.5 35.5t35.5 14.5t35.5 -14.5t14.5 -35.5t-14.5 -35.5t-35.5 -14.5t-35.5 14.5t-14.5 35.5z" />
    <glyph glyph-name="edotaccent" unicode="&#x117;" horiz-adv-x="610" 
d="M327 136q113 0 174 70l100 -99q-96 -119 -279 -119q-147 0 -230 86t-83 211q0 122 86 209.5t218 87.5q131 0 209.5 -85.5t78.5 -211.5v-60h-409q26 -89 135 -89zM213 702q0 41 29.5 70.5t70.5 29.5t70.5 -29.5t29.5 -70.5t-29.5 -70.5t-70.5 -29.5t-70.5 29.5t-29.5 70.5
zM310 434q-97 0 -120 -89h231q-17 89 -111 89z" />
    <glyph glyph-name="Eogonek" unicode="&#x118;" horiz-adv-x="605" 
d="M513 -161q44 0 79 19l17 -37q-45 -31 -108 -31q-66 0 -106.5 26t-40.5 75q0 68 84 109h-413v770h540v-170h-340v-120h280v-170h-280v-140h340v-170q-123 -26 -123 -102q0 -28 19 -43.5t52 -15.5z" />
    <glyph glyph-name="eogonek" unicode="&#x119;" horiz-adv-x="610" 
d="M374 -161q44 0 79 19l17 -37q-45 -31 -108 -31q-66 0 -106.5 26t-40.5 75q0 59 66 99q-129 12 -200.5 95.5t-71.5 199.5q0 122 86 209.5t218 87.5q131 0 209.5 -85.5t78.5 -211.5v-60h-409q26 -89 135 -89q113 0 174 70l100 -99q-72 -88 -191 -111q-107 -27 -107 -98
q0 -28 19 -43.5t52 -15.5zM310 434q-97 0 -120 -89h231q-17 89 -111 89z" />
    <glyph glyph-name="Ecaron" unicode="&#x11a;" horiz-adv-x="578" 
d="M565 170v-170h-540v770h540v-170h-340v-120h280v-170h-280v-140h340zM466 890l6 -38l-177 -67l-177 67l6 38l171 -38z" />
    <glyph glyph-name="ecaron" unicode="&#x11b;" horiz-adv-x="610" 
d="M327 136q113 0 174 70l100 -99q-96 -119 -279 -119q-147 0 -230 86t-83 211q0 122 86 209.5t218 87.5q131 0 209.5 -85.5t78.5 -211.5v-60h-409q26 -89 135 -89zM168 728l15 26l130 -53l130 53l15 -26l-145 -125zM310 434q-97 0 -120 -89h231q-17 89 -111 89z" />
    <glyph glyph-name="Gcircumflex" unicode="&#x11c;" horiz-adv-x="790" 
d="M420 280v170h360v-65q0 -195 -97.5 -297.5t-279.5 -102.5q-169 0 -281 111t-112 289q0 180 112 290t293 110q184 0 296 -114l-139 -139q-57 68 -157 68q-93 0 -149 -58t-56 -157q0 -98 56 -156.5t143 -58.5q68 0 107.5 26t54.5 84h-151zM234 785l-6 38l177 67l177 -67
l-6 -38l-171 37z" />
    <glyph glyph-name="gcircumflex" unicode="&#x11d;" horiz-adv-x="636" 
d="M623 39h-1q-4 -122 -98.5 -192.5t-236.5 -70.5q-191 0 -284 126l105 106q26 -36 72 -60t103 -24q73 0 116.5 32.5t43.5 82.5v37q-67 -48 -151 -48q-115 0 -193 79.5t-78 197.5t78 197.5t193 79.5q84 0 155 -51v39h176v-531zM447 305q0 55 -35.5 90t-89.5 35
q-55 0 -90 -35t-35 -90t35 -90t90 -35q54 0 89.5 35t35.5 90zM177 605l-15 26l145 125l145 -125l-15 -26l-130 52z" />
    <glyph glyph-name="Gbreve" unicode="&#x11e;" horiz-adv-x="790" 
d="M406 790q-65 0 -113.5 26t-61.5 80h62q7 -22 40 -32.5t73 -10.5t73 10.5t40 32.5h62q-13 -54 -61.5 -80t-113.5 -26zM420 280v170h360v-65q0 -195 -97.5 -297.5t-279.5 -102.5q-169 0 -281 111t-112 289q0 180 112 290t293 110q184 0 296 -114l-139 -139q-57 68 -157 68
q-93 0 -149 -58t-56 -157q0 -98 56 -156.5t143 -58.5q68 0 107.5 26t54.5 84h-151z" />
    <glyph glyph-name="gbreve" unicode="&#x11f;" horiz-adv-x="636" 
d="M623 39h-1q-4 -122 -98.5 -192.5t-236.5 -70.5q-191 0 -284 126l105 106q26 -36 72 -60t103 -24q73 0 116.5 32.5t43.5 82.5v37q-67 -48 -151 -48q-115 0 -193 79.5t-78 197.5t78 197.5t193 79.5q84 0 155 -51v39h176v-531zM447 305q0 55 -35.5 90t-89.5 35
q-55 0 -90 -35t-35 -90t35 -90t90 -35q54 0 89.5 35t35.5 90zM307 610q-64 0 -111 36.5t-54 94.5h62q5 -27 35 -41t68 -14t68 14t35 41h62q-7 -58 -54 -94.5t-111 -36.5z" />
    <glyph glyph-name="Gdotaccent" unicode="&#x120;" horiz-adv-x="790" 
d="M356 840q0 21 14.5 35.5t35.5 14.5t35.5 -14.5t14.5 -35.5t-14.5 -35.5t-35.5 -14.5t-35.5 14.5t-14.5 35.5zM420 280v170h360v-65q0 -195 -97.5 -297.5t-279.5 -102.5q-169 0 -281 111t-112 289q0 180 112 290t293 110q184 0 296 -114l-139 -139q-57 68 -157 68
q-93 0 -149 -58t-56 -157q0 -98 56 -156.5t143 -58.5q68 0 107.5 26t54.5 84h-151z" />
    <glyph glyph-name="gdotaccent" unicode="&#x121;" horiz-adv-x="636" 
d="M623 39h-1q-4 -122 -98.5 -192.5t-236.5 -70.5q-191 0 -284 126l105 106q26 -36 72 -60t103 -24q70 0 114 31t46 79v42q-67 -48 -151 -48q-115 0 -193 79.5t-78 197.5t78 197.5t193 79.5q84 0 155 -51v39h176v-531zM447 305q0 55 -35.5 90t-89.5 35q-55 0 -90 -35
t-35 -90t35 -90t90 -35q54 0 89.5 35t35.5 90zM207 702q0 41 29.5 70.5t70.5 29.5t70.5 -29.5t29.5 -70.5t-29.5 -70.5t-70.5 -29.5t-70.5 29.5t-29.5 70.5z" />
    <glyph glyph-name="Gcommaaccent" unicode="&#x122;" horiz-adv-x="790" 
d="M434 -210h-125l21 170h153zM420 280v170h360v-65q0 -195 -97.5 -297.5t-279.5 -102.5q-169 0 -281 111t-112 289q0 180 112 290t293 110q184 0 296 -114l-139 -139q-57 68 -157 68q-93 0 -149 -58t-56 -157q0 -98 56 -156.5t143 -58.5q68 0 107.5 26t54.5 84h-151z" />
    <glyph glyph-name="gcommaaccent" unicode="&#x123;" horiz-adv-x="636" 
d="M623 39h-1q-4 -122 -98.5 -192.5t-236.5 -70.5q-191 0 -284 126l105 106q26 -36 72 -60t103 -24q73 0 116.5 32.5t43.5 82.5v37q-67 -48 -151 -48q-115 0 -193 79.5t-78 197.5t78 197.5t193 79.5q84 0 155 -51v39h176v-531zM447 305q0 55 -35.5 90t-89.5 35
q-55 0 -90 -35t-35 -90t35 -90t90 -35q54 0 89.5 35t35.5 90zM348 610h-82l25 141h63z" />
    <glyph glyph-name="Hcircumflex" unicode="&#x124;" horiz-adv-x="750" 
d="M725 770v-770h-200v310h-300v-310h-200v770h200v-290h300v290h200zM204 785l-6 38l177 67l177 -67l-6 -38l-171 37z" />
    <glyph glyph-name="hcircumflex" unicode="&#x125;" horiz-adv-x="569" 
d="M-68 805l-6 38l177 67l177 -67l-6 -38l-171 37zM193 790v-263q62 55 165 55q83 0 141 -51t58 -135v-396h-180v362q-1 33 -25 53.5t-59 20.5q-44 0 -72 -23.5t-28 -64.5v-348h-180v790h180z" />
    <glyph glyph-name="Hbar" unicode="&#x126;" horiz-adv-x="750" 
d="M725 770v-770h-200v310h-300v-310h-200v770h200v-68h300v68h200zM225 552v-72h300v72h-300z" />
    <glyph glyph-name="hbar" unicode="&#x127;" horiz-adv-x="608" 
d="M232 790v-50h116v-130h-116v-83q62 55 165 55q83 0 141 -51t58 -135v-396h-180v362q-1 33 -25 53.5t-59 20.5q-43 0 -71 -22.5t-29 -61.5v-352h-180v610h-64v130h64v50h180z" />
    <glyph glyph-name="Itilde" unicode="&#x128;" horiz-adv-x="250" 
d="M225 770v-770h-200v770h200zM205 848q40 0 56 31h40q-9 -41 -34.5 -67.5t-66.5 -26.5q-33 0 -81.5 21.5t-73.5 21.5q-40 0 -56 -31h-40q9 41 34.5 67.5t66.5 26.5q33 0 81.5 -21.5t73.5 -21.5z" />
    <glyph glyph-name="itilde" unicode="&#x129;" horiz-adv-x="220" 
d="M200 570v-570h-180v570h180zM23 751q45 0 98 -27.5t80 -27.5q51 0 62 43h46q-7 -61 -36.5 -93.5t-75.5 -32.5q-45 0 -98 27.5t-80 27.5q-51 0 -62 -43h-46q7 61 36.5 93.5t75.5 32.5z" />
    <glyph glyph-name="Imacron" unicode="&#x12a;" horiz-adv-x="250" 
d="M225 770v-770h-200v770h200zM265 879v-82h-280v82h280z" />
    <glyph glyph-name="imacron" unicode="&#x12b;" horiz-adv-x="220" 
d="M200 570v-570h-180v570h180zM250 713v-82h-280v82h280z" />
    <glyph glyph-name="Ibreve" unicode="&#x12c;" horiz-adv-x="250" 
d="M225 770v-770h-200v770h200zM125 785q-65 0 -113.5 26t-61.5 80h62q7 -22 40 -32.5t73 -10.5t73 10.5t40 32.5h62q-13 -54 -61.5 -80t-113.5 -26z" />
    <glyph glyph-name="ibreve" unicode="&#x12d;" horiz-adv-x="220" 
d="M200 570v-570h-180v570h180zM110 610q-64 0 -111 36.5t-54 94.5h62q5 -27 35 -41t68 -14t68 14t35 41h62q-7 -58 -54 -94.5t-111 -36.5z" />
    <glyph glyph-name="Iogonek" unicode="&#x12e;" horiz-adv-x="250" 
d="M173 -161q44 0 79 19l17 -37q-45 -31 -108 -31q-66 0 -106.5 26t-40.5 75q0 22 11 44v835h200v-770q-123 -26 -123 -102q0 -28 19 -43.5t52 -15.5z" />
    <glyph glyph-name="iogonek" unicode="&#x12f;" horiz-adv-x="220" 
d="M148 -161q44 0 79 19l17 -37q-45 -31 -108 -31q-66 0 -106.5 26t-40.5 75q0 39 31 72v607h180v-570q-123 -26 -123 -102q0 -28 19 -43.5t52 -15.5zM10 702q0 41 29.5 70.5t70.5 29.5t70.5 -29.5t29.5 -70.5t-29.5 -70.5t-70.5 -29.5t-70.5 29.5t-29.5 70.5z" />
    <glyph glyph-name="Idotaccent" unicode="&#x130;" horiz-adv-x="250" 
d="M225 770v-770h-200v770h200zM75 835q0 21 14.5 35.5t35.5 14.5t35.5 -14.5t14.5 -35.5t-14.5 -35.5t-35.5 -14.5t-35.5 14.5t-14.5 35.5z" />
    <glyph glyph-name="dotlessi" unicode="&#x131;" horiz-adv-x="220" 
d="M200 570v-570h-180v570h180z" />
    <glyph glyph-name="IJ" unicode="&#x132;" horiz-adv-x="653" 
d="M430 255v515h200v-534q0 -122 -71 -186.5t-189 -64.5q-33 0 -70 10v201q28 -17 55 -17q32 0 53.5 21t21.5 55zM225 770v-770h-200v770h200z" />
    <glyph glyph-name="ij" unicode="&#x133;" horiz-adv-x="440" 
d="M240 -222q-50 0 -88 14.5t-55 30.5l51 131q21 -14 42 -14t34.5 12t15.5 31v587h180v-616q0 -76 -50 -126t-130 -50zM200 570v-570h-180v570h180zM10 702q0 41 29.5 70.5t70.5 29.5t70.5 -29.5t29.5 -70.5t-29.5 -70.5t-70.5 -29.5t-70.5 29.5t-29.5 70.5zM230 702
q0 41 29.5 70.5t70.5 29.5t70.5 -29.5t29.5 -70.5t-29.5 -70.5t-70.5 -29.5t-70.5 29.5t-29.5 70.5z" />
    <glyph glyph-name="Jcircumflex" unicode="&#x134;" horiz-adv-x="501" 
d="M278 255v515h200v-534q0 -122 -71 -186.5t-189 -64.5q-74 0 -133 29.5t-83 72.5l131 131q29 -39 70 -39q32 0 53.5 21t21.5 55zM206 785l-6 38l177 67l177 -67l-6 -38l-171 37z" />
    <glyph glyph-name="jcircumflex" unicode="&#x135;" horiz-adv-x="220" 
d="M20 -222q-50 0 -88 14.5t-55 30.5l51 131q21 -14 42 -14t34.5 12t15.5 31v587h180v-616q0 -76 -50 -126t-130 -50zM-20 605l-15 26l145 125l145 -125l-15 -26l-130 52z" />
    <glyph glyph-name="Kcommaaccent" unicode="&#x136;" horiz-adv-x="765" 
d="M225 770v-277l246 277h254l-304 -319l334 -451h-254l-218 306l-58 -61v-245h-200v770h200zM315 -40h82l-30 -170h-59z" />
    <glyph glyph-name="kcommaaccent" unicode="&#x137;" horiz-adv-x="587" 
d="M193 790v-391l152 171h218l-208 -217l230 -353h-214l-132 231l-46 -49v-182h-180v790h180zM238 -40h82l-30 -170h-59z" />
    <glyph glyph-name="kgreenlandic" unicode="&#x138;" horiz-adv-x="587" 
d="M193 570v-171l152 171h218l-208 -217l230 -353h-214l-132 231l-46 -49v-182h-180v570h180z" />
    <glyph glyph-name="Lacute" unicode="&#x139;" horiz-adv-x="533" 
d="M525 170v-170h-500v770h200v-600h300zM74 790l-6 38l174 52l12 -76z" />
    <glyph glyph-name="lacute" unicode="&#x13a;" horiz-adv-x="206" 
d="M13 0v790h180v-790h-180zM18 810l-6 38l174 52l12 -76z" />
    <glyph glyph-name="Lcommaaccent" unicode="&#x13b;" horiz-adv-x="533" 
d="M525 170v-170h-500v770h200v-600h300zM238 -40h82l-30 -170h-59z" />
    <glyph glyph-name="lcommaaccent" unicode="&#x13c;" horiz-adv-x="206" 
d="M13 0v790h180v-790h-180zM62 -40h82l-30 -170h-59z" />
    <glyph glyph-name="Lcaron" unicode="&#x13d;" horiz-adv-x="533" 
d="M525 170v-170h-500v770h200v-600h300zM342 790h82l-30 -170h-59z" />
    <glyph glyph-name="lcaron" unicode="&#x13e;" horiz-adv-x="226" 
d="M13 0v790h180v-790h-180zM250 790h82l-30 -170h-59z" />
    <glyph glyph-name="Ldot" unicode="&#x13f;" horiz-adv-x="533" 
d="M525 170v-170h-500v770h200v-600h300zM510 385q0 -41 -29.5 -70.5t-70.5 -29.5t-70.5 29.5t-29.5 70.5t29.5 70.5t70.5 29.5t70.5 -29.5t29.5 -70.5z" />
    <glyph glyph-name="ldot" unicode="&#x140;" horiz-adv-x="400" 
d="M13 0v790h180v-790h-180zM403 404q0 -41 -29.5 -70.5t-70.5 -29.5t-70.5 29.5t-29.5 70.5t29.5 70.5t70.5 29.5t70.5 -29.5t29.5 -70.5z" />
    <glyph glyph-name="Lslash" unicode="&#x141;" horiz-adv-x="609" 
d="M6 357l95 46v367h200v-269l168 83v-130l-168 -83v-201h300v-170h-500v273l-95 -46v130z" />
    <glyph glyph-name="lslash" unicode="&#x142;" horiz-adv-x="322" 
d="M6 432l60 29v329h180v-241l70 35v-110l-70 -35v-439h-180v351l-60 -29v110z" />
    <glyph glyph-name="Nacute" unicode="&#x143;" horiz-adv-x="770" 
d="M29 780l526 -410l-10 400h200v-780h-4l-526 410l10 -400h-200v780h4zM325 790l-6 38l174 52l12 -76z" />
    <glyph glyph-name="nacute" unicode="&#x144;" horiz-adv-x="569" 
d="M377 0v359q0 34 -24 55.5t-60 21.5q-43 0 -71 -22.5t-29 -61.5v-352h-180v570h176v-46q63 58 169 58q83 0 141 -51t58 -135v-396h-180zM284 605l-15 26l145 125l55 -96z" />
    <glyph glyph-name="Ncommaaccent" unicode="&#x145;" horiz-adv-x="770" 
d="M29 780l526 -410l-10 400h200v-780h-4l-526 410l10 -400h-200v780h4zM357 -40h82l-30 -170h-59z" />
    <glyph glyph-name="ncommaaccent" unicode="&#x146;" horiz-adv-x="569" 
d="M377 0v359q0 34 -24 55.5t-60 21.5q-43 0 -71 -22.5t-29 -61.5v-352h-180v570h176v-46q63 58 169 58q83 0 141 -51t58 -135v-396h-180zM243 -40h82l-30 -170h-59z" />
    <glyph glyph-name="Ncaron" unicode="&#x147;" horiz-adv-x="770" 
d="M29 780l526 -410l-10 400h200v-780h-4l-526 410l10 -400h-200v780h4zM546 890l6 -38l-177 -67l-177 67l6 38l171 -38z" />
    <glyph glyph-name="ncaron" unicode="&#x148;" horiz-adv-x="569" 
d="M377 0v362q-1 33 -25 53.5t-59 20.5q-43 0 -71 -22.5t-29 -61.5v-352h-180v570h176v-46q63 58 169 58q83 0 141 -51t58 -135v-396h-180zM139 728l15 26l130 -53l130 53l15 -26l-145 -125z" />
    <glyph glyph-name="Eng" unicode="&#x14a;" horiz-adv-x="770" 
d="M560 -222q-50 0 -90.5 14.5t-57.5 30.5l51 131q21 -14 42 -14q22 0 36 13.5t14 33.5v148l-340 265l10 -400h-200v780h4l526 -410l-10 400h200v-811q0 -76 -52.5 -128.5t-132.5 -52.5z" />
    <glyph glyph-name="eng" unicode="&#x14b;" horiz-adv-x="569" 
d="M377 -222q-50 0 -88 14.5t-55 30.5l51 131q21 -14 42 -14t34.5 12t15.5 31v376q0 34 -24 55.5t-60 21.5q-43 0 -71 -22.5t-29 -61.5v-352h-180v570h176v-46q63 58 169 58q83 0 141 -51t58 -135v-442q0 -76 -50 -126t-130 -50z" />
    <glyph glyph-name="Omacron" unicode="&#x14c;" horiz-adv-x="830" 
d="M620 385q0 99 -56 157t-149 58t-149 -58t-56 -157t56 -157t149 -58t149 58t56 157zM820 385q0 -180 -112 -290t-293 -110t-293 110t-112 290t112 290t293 110t293 -110t112 -290zM556 879v-82h-280v82h280z" />
    <glyph glyph-name="omacron" unicode="&#x14d;" horiz-adv-x="630" 
d="M621 285q0 -131 -85.5 -214t-220.5 -83t-220.5 83t-85.5 214t85.5 214t220.5 83t220.5 -83t85.5 -214zM185 285q0 -63 35.5 -99t94.5 -36t94.5 36t35.5 99t-35.5 99t-94.5 36t-94.5 -36t-35.5 -99zM455 713v-82h-280v82h280z" />
    <glyph glyph-name="Obreve" unicode="&#x14e;" horiz-adv-x="830" 
d="M620 385q0 99 -56 157t-149 58t-149 -58t-56 -157t56 -157t149 -58t149 58t56 157zM820 385q0 -180 -112 -290t-293 -110t-293 110t-112 290t112 290t293 110t293 -110t112 -290zM416 790q-65 0 -113.5 26t-61.5 80h62q7 -22 40 -32.5t73 -10.5t73 10.5t40 32.5h62
q-13 -54 -61.5 -80t-113.5 -26z" />
    <glyph glyph-name="obreve" unicode="&#x14f;" horiz-adv-x="630" 
d="M621 285q0 -131 -85.5 -214t-220.5 -83t-220.5 83t-85.5 214t85.5 214t220.5 83t220.5 -83t85.5 -214zM185 285q0 -63 35.5 -99t94.5 -36t94.5 36t35.5 99t-35.5 99t-94.5 36t-94.5 -36t-35.5 -99zM315 610q-64 0 -111 36.5t-54 94.5h62q5 -27 35 -41t68 -14t68 14t35 41
h62q-7 -58 -54 -94.5t-111 -36.5z" />
    <glyph glyph-name="Ohungarumlaut" unicode="&#x150;" horiz-adv-x="830" 
d="M620 385q0 99 -56 157t-149 58t-149 -58t-56 -157t56 -157t149 -58t149 58t56 157zM820 385q0 -180 -112 -290t-293 -110t-293 110t-112 290t112 290t293 110t293 -110t112 -290zM312 785l-16 35l100 70l31 -70zM462 785l-16 35l100 70l31 -70z" />
    <glyph glyph-name="ohungarumlaut" unicode="&#x151;" horiz-adv-x="630" 
d="M621 285q0 -131 -85.5 -214t-220.5 -83t-220.5 83t-85.5 214t85.5 214t220.5 83t220.5 -83t85.5 -214zM185 285q0 -63 35.5 -99t94.5 -36t94.5 36t35.5 99t-35.5 99t-94.5 36t-94.5 -36t-35.5 -99zM255 605l-26 15l47 136l79 -46zM375 605l-26 15l47 136l79 -46z" />
    <glyph glyph-name="OE" unicode="&#x152;" horiz-adv-x="1032" 
d="M1020 170v-170h-635q-161 0 -268 108.5t-107 276.5t107 276.5t268 108.5h635v-170h-340v-120h280v-170h-280v-140h340zM210 385q0 -98 57 -156.5t153 -58.5h60v430h-60q-96 0 -153 -58.5t-57 -156.5z" />
    <glyph glyph-name="oe" unicode="&#x153;" horiz-adv-x="1046" 
d="M763 136q113 0 174 70l100 -99q-96 -119 -279 -119q-143 0 -225 85q-82 -85 -218 -85q-135 0 -220.5 83t-85.5 214t85.5 214t220.5 83q137 0 220 -88q83 88 214 88t209.5 -85.5t78.5 -211.5v-60h-409q26 -89 135 -89zM185 285q0 -63 35.5 -99t94.5 -36t94.5 36t35.5 99
t-35.5 99t-94.5 36t-94.5 -36t-35.5 -99zM746 434q-97 0 -120 -89h231q-17 89 -111 89z" />
    <glyph glyph-name="Racute" unicode="&#x154;" horiz-adv-x="640" 
d="M235 790l-6 38l174 52l12 -76zM615 515q0 -71 -35.5 -130t-94.5 -93l155 -292h-200l-138 260h-77v-260h-200v770h335q106 0 180.5 -74.5t74.5 -180.5zM330 600h-105v-170h105q35 0 60 25t25 60t-25 60t-60 25z" />
    <glyph glyph-name="racute" unicode="&#x155;" horiz-adv-x="396" 
d="M189 570v-42q44 54 120 54q56 0 85 -31l-57 -146q-19 15 -48 15q-43 0 -69.5 -26t-26.5 -73v-321h-180v570h176zM193 605l-15 26l145 125l55 -96z" />
    <glyph glyph-name="Rcommaaccent" unicode="&#x156;" horiz-adv-x="640" 
d="M279 -40h82l-30 -170h-59zM615 515q0 -71 -35.5 -130t-94.5 -93l155 -292h-200l-138 260h-77v-260h-200v770h335q106 0 180.5 -74.5t74.5 -180.5zM330 600h-105v-170h105q35 0 60 25t25 60t-25 60t-60 25z" />
    <glyph glyph-name="rcommaaccent" unicode="&#x157;" horiz-adv-x="396" 
d="M189 570v-42q44 54 120 54q56 0 85 -31l-57 -146q-19 15 -48 15q-43 0 -69.5 -26t-26.5 -73v-321h-180v570h176zM62 -40h82l-30 -170h-59z" />
    <glyph glyph-name="Rcaron" unicode="&#x158;" horiz-adv-x="640" 
d="M456 890l6 -38l-177 -67l-177 67l6 38l171 -38zM615 515q0 -71 -35.5 -130t-94.5 -93l155 -292h-200l-138 260h-77v-260h-200v770h335q106 0 180.5 -74.5t74.5 -180.5zM330 600h-105v-170h105q35 0 60 25t25 60t-25 60t-60 25z" />
    <glyph glyph-name="rcaron" unicode="&#x159;" horiz-adv-x="396" 
d="M189 570v-42q44 54 120 54q56 0 85 -31l-57 -146q-19 15 -48 15q-43 0 -69.5 -26t-26.5 -73v-321h-180v570h176zM48 728l15 26l130 -53l130 53l15 -26l-145 -125z" />
    <glyph glyph-name="Sacute" unicode="&#x15a;" horiz-adv-x="603" 
d="M289 155q48 0 76.5 19.5t28.5 56.5q0 17 -10 30.5t-33 25t-41.5 18t-54.5 17.5q-101 31 -158 83t-57 144q0 105 79 170t195 65q94 0 163.5 -37.5t96.5 -104.5l-161 -93q-33 66 -93 66q-37 0 -57 -17t-20 -41q0 -11 3.5 -19.5t11.5 -15t15.5 -11.5t21 -10t22.5 -7.5l26 -7
t26 -7.5q60 -18 98.5 -36.5t69.5 -47t45 -70t14 -98.5q0 -93 -84 -167t-218 -74q-106 0 -180 42.5t-109 122.5l160 93q33 -89 124 -89zM264 790l-6 38l174 52l12 -76z" />
    <glyph glyph-name="sacute" unicode="&#x15b;" horiz-adv-x="501" 
d="M254 -12q-165 0 -248 102l106 104q52 -64 133 -64q75 0 75 41q0 24 -21.5 35t-82.5 21q-91 15 -137 61t-46 106q0 85 66 136.5t161 51.5q70 0 124.5 -25.5t83.5 -72.5l-93 -91q-34 47 -105 47q-63 0 -63 -39q0 -10 6 -17t24 -13t31.5 -9t48.5 -10q85 -17 131 -59t46 -121
q0 -80 -70.5 -132t-169.5 -52zM255 605l-15 26l145 125l55 -96z" />
    <glyph glyph-name="Scircumflex" unicode="&#x15c;" horiz-adv-x="603" 
d="M289 155q48 0 76.5 19.5t28.5 56.5q0 17 -10 30.5t-33 25t-41.5 18t-54.5 17.5q-101 31 -158 83t-57 144q0 105 79 170t195 65q94 0 163.5 -37.5t96.5 -104.5l-161 -93q-33 66 -93 66q-37 0 -57 -17t-20 -41q0 -11 3.5 -19.5t11.5 -15t15.5 -11.5t21 -10t22.5 -7.5l26 -7
t26 -7.5q60 -18 98.5 -36.5t69.5 -47t45 -70t14 -98.5q0 -93 -84 -167t-218 -74q-106 0 -180 42.5t-109 122.5l160 93q33 -89 124 -89zM143 785l-6 38l177 67l177 -67l-6 -38l-171 37z" />
    <glyph glyph-name="scircumflex" unicode="&#x15d;" horiz-adv-x="501" 
d="M254 -12q-165 0 -248 102l106 104q52 -64 133 -64q75 0 75 41q0 24 -21.5 35t-82.5 21q-91 15 -137 61t-46 106q0 85 66 136.5t161 51.5q70 0 124.5 -25.5t83.5 -72.5l-93 -91q-34 47 -105 47q-63 0 -63 -39q0 -10 6 -17t24 -13t31.5 -9t48.5 -10q85 -17 131 -59t46 -121
q0 -80 -70.5 -132t-169.5 -52zM125 605l-15 26l145 125l145 -125l-15 -26l-130 52z" />
    <glyph glyph-name="Scedilla" unicode="&#x15e;" horiz-adv-x="603" 
d="M305 -161q48 0 48 31q0 39 -93 52l18 65q-100 3 -170 45t-103 119l160 93q33 -89 124 -89q48 0 76.5 19.5t28.5 56.5q0 17 -10 30.5t-33 25t-41.5 18t-54.5 17.5q-101 31 -158 83t-57 144q0 105 79 170t195 65q94 0 163.5 -37.5t96.5 -104.5l-161 -93q-33 66 -93 66
q-37 0 -57 -17t-20 -41q0 -11 3.5 -19.5t11.5 -15t15.5 -11.5t21 -10t22.5 -7.5l26 -7t26 -7.5q60 -18 98.5 -36.5t69.5 -47t45 -70t14 -98.5q0 -89 -77.5 -161.5t-202.5 -78.5l-4 -16q58 -11 91.5 -36.5t33.5 -60.5q0 -42 -36.5 -63t-90.5 -21q-72 0 -113 31l17 37
q41 -19 91 -19z" />
    <glyph glyph-name="scedilla" unicode="&#x15f;" horiz-adv-x="501" 
d="M260 -161q48 0 48 31q0 39 -93 52l18 67q-148 5 -227 101l106 104q52 -64 133 -64q75 0 75 41q0 24 -21.5 35t-82.5 21q-91 15 -137 61t-46 106q0 85 66 136.5t161 51.5q70 0 124.5 -25.5t83.5 -72.5l-93 -91q-34 47 -105 47q-63 0 -63 -39q0 -10 6 -17t24 -13t31.5 -9
t48.5 -10q85 -17 131 -59t46 -121q0 -76 -64.5 -127t-158.5 -56l-4 -18q58 -11 91.5 -36.5t33.5 -60.5q0 -42 -36.5 -63t-90.5 -21q-72 0 -113 31l17 37q41 -19 91 -19z" />
    <glyph glyph-name="Scaron" unicode="&#x160;" horiz-adv-x="603" 
d="M289 155q48 0 76.5 19.5t28.5 56.5q0 17 -10 30.5t-33 25t-41.5 18t-54.5 17.5q-101 31 -158 83t-57 144q0 105 79 170t195 65q94 0 163.5 -37.5t96.5 -104.5l-161 -93q-33 66 -93 66q-37 0 -57 -17t-20 -41q0 -11 3.5 -19.5t11.5 -15t15.5 -11.5t21 -10t22.5 -7.5l26 -7
t26 -7.5q60 -18 98.5 -36.5t69.5 -47t45 -70t14 -98.5q0 -93 -84 -167t-218 -74q-106 0 -180 42.5t-109 122.5l160 93q33 -89 124 -89zM485 895l6 -38l-177 -67l-177 67l6 38l171 -38z" />
    <glyph glyph-name="scaron" unicode="&#x161;" horiz-adv-x="501" 
d="M254 -12q-165 0 -248 102l106 104q52 -64 133 -64q75 0 75 41q0 24 -21.5 35t-82.5 21q-91 15 -137 61t-46 106q0 85 66 136.5t161 51.5q70 0 124.5 -25.5t83.5 -72.5l-93 -91q-34 47 -105 47q-63 0 -63 -39q0 -10 6 -17t24 -13t31.5 -9t48.5 -10q85 -17 131 -59t46 -121
q0 -80 -70.5 -132t-169.5 -52zM110 728l15 26l130 -53l130 53l15 -26l-145 -125z" />
    <glyph glyph-name="Tcommaaccent" unicode="&#x162;" horiz-adv-x="616" 
d="M608 770v-170h-200v-600h-200v600h-200v170h600zM267 -40h82l-30 -170h-59z" />
    <glyph glyph-name="tcommaaccent" unicode="&#x163;" horiz-adv-x="428" 
d="M268 -12q-80 0 -130 50t-50 126v266h-80v140h80v132h180v-132h130v-140h-130v-233q0 -20 14 -33.5t36 -13.5q21 0 42 14l51 -131q-17 -16 -55 -30.5t-88 -14.5zM207 -40h82l-30 -170h-59z" />
    <glyph glyph-name="Tcaron" unicode="&#x164;" horiz-adv-x="616" 
d="M608 770v-170h-200v-600h-200v600h-200v170h600zM479 890l6 -38l-177 -67l-177 67l6 38l171 -38z" />
    <glyph glyph-name="tcaron" unicode="&#x165;" horiz-adv-x="428" 
d="M268 -12q-80 0 -130 50t-50 126v266h-80v140h80v132h180v-132h130v-140h-130v-237q2 -19 15.5 -31t34.5 -12t42 14l51 -131q-17 -16 -55 -30.5t-88 -14.5zM325 790h82l-30 -170h-59z" />
    <glyph glyph-name="Tbar" unicode="&#x166;" horiz-adv-x="616" 
d="M508 470v-150h-100v-320h-200v320h-100v150h100v130h-200v170h600v-170h-200v-130h100z" />
    <glyph glyph-name="tbar" unicode="&#x167;" horiz-adv-x="428" 
d="M8 235v130h80v65h-80v140h80v132h180v-132h130v-140h-130v-65h100v-130h-100v-38q0 -20 14 -33.5t36 -13.5q21 0 42 14l51 -131q-17 -16 -55 -30.5t-88 -14.5q-80 0 -130 50t-50 126v71h-80z" />
    <glyph glyph-name="Utilde" unicode="&#x168;" horiz-adv-x="666" 
d="M333 -15q-137 0 -223.5 82t-86.5 222v481h200v-490q0 -52 30 -81t80 -29t80 29t30 81v490h200v-481q0 -140 -86.5 -222t-223.5 -82zM414 848q40 0 56 31h40q-9 -41 -34.5 -67.5t-66.5 -26.5q-33 0 -81.5 21.5t-73.5 21.5q-40 0 -56 -31h-40q9 41 34.5 67.5t66.5 26.5
q33 0 81.5 -21.5t73.5 -21.5z" />
    <glyph glyph-name="utilde" unicode="&#x169;" horiz-adv-x="569" 
d="M192 570v-359q0 -34 24 -55.5t60 -21.5q44 0 72 23.5t28 64.5v348h180v-570h-176v46q-61 -58 -169 -58q-83 0 -141 51t-58 135v396h180zM196 751q45 0 98.5 -27.5t79.5 -27.5q51 0 62 43h46q-7 -61 -36.5 -93.5t-75.5 -32.5q-44 0 -97.5 27.5t-80.5 27.5q-51 0 -62 -43
h-46q7 61 36.5 93.5t75.5 32.5z" />
    <glyph glyph-name="Umacron" unicode="&#x16a;" horiz-adv-x="666" 
d="M333 -15q-137 0 -223.5 82t-86.5 222v481h200v-490q0 -52 30 -81t80 -29t80 29t30 81v490h200v-481q0 -140 -86.5 -222t-223.5 -82zM474 879v-82h-280v82h280z" />
    <glyph glyph-name="umacron" unicode="&#x16b;" horiz-adv-x="569" 
d="M192 570v-359q0 -34 24 -55.5t60 -21.5q44 0 72 23.5t28 64.5v348h180v-570h-176v46q-61 -58 -169 -58q-83 0 -141 51t-58 135v396h180zM423 713v-82h-280v82h280z" />
    <glyph glyph-name="Ubreve" unicode="&#x16c;" horiz-adv-x="666" 
d="M333 -15q-137 0 -223.5 82t-86.5 222v481h200v-490q0 -52 30 -81t80 -29t80 29t30 81v490h200v-481q0 -140 -86.5 -222t-223.5 -82zM334 785q-65 0 -113.5 26t-61.5 80h62q7 -22 40 -32.5t73 -10.5t73 10.5t40 32.5h62q-13 -54 -61.5 -80t-113.5 -26z" />
    <glyph glyph-name="ubreve" unicode="&#x16d;" horiz-adv-x="569" 
d="M192 570v-359q0 -34 24 -55.5t60 -21.5q44 0 72 23.5t28 64.5v348h180v-570h-176v46q-61 -58 -169 -58q-83 0 -141 51t-58 135v396h180zM283 610q-64 0 -111 36.5t-54 94.5h62q5 -27 35 -41t68 -14t68 14t35 41h62q-7 -58 -54 -94.5t-111 -36.5z" />
    <glyph glyph-name="Uring" unicode="&#x16e;" horiz-adv-x="666" 
d="M333 -15q-137 0 -223.5 82t-86.5 222v481h200v-490q0 -52 30 -81t80 -29t80 29t30 81v490h200v-481q0 -140 -86.5 -222t-223.5 -82zM245 795q0 37 26 63t63 26t63 -26t26 -63t-26 -63t-63 -26t-63 26t-26 63zM383 795q0 20 -14.5 34.5t-34.5 14.5t-34.5 -14.5
t-14.5 -34.5t14.5 -34.5t34.5 -14.5t34.5 14.5t14.5 34.5z" />
    <glyph glyph-name="uring" unicode="&#x16f;" horiz-adv-x="569" 
d="M192 570v-359q0 -34 24 -55.5t60 -21.5q44 0 72 23.5t28 64.5v348h180v-570h-176v46q-61 -58 -169 -58q-83 0 -141 51t-58 135v396h180zM194 691q0 37 26 63t63 26t63 -26t26 -63t-26 -63t-63 -26t-63 26t-26 63zM332 691q0 20 -14.5 34.5t-34.5 14.5t-34.5 -14.5
t-14.5 -34.5t14.5 -34.5t34.5 -14.5t34.5 14.5t14.5 34.5z" />
    <glyph glyph-name="Uhungarumlaut" unicode="&#x170;" horiz-adv-x="666" 
d="M333 -15q-137 0 -223.5 82t-86.5 222v481h200v-490q0 -52 30 -81t80 -29t80 29t30 81v490h200v-481q0 -140 -86.5 -222t-223.5 -82zM230 785l-16 35l100 70l31 -70zM380 785l-16 35l100 70l31 -70z" />
    <glyph glyph-name="uhungarumlaut" unicode="&#x171;" horiz-adv-x="569" 
d="M192 570v-359q0 -34 24 -55.5t60 -21.5q44 0 72 23.5t28 64.5v348h180v-570h-176v46q-61 -58 -169 -58q-83 0 -141 51t-58 135v396h180zM223 605l-26 15l47 136l79 -46zM343 605l-26 15l47 136l79 -46z" />
    <glyph glyph-name="Uogonek" unicode="&#x172;" horiz-adv-x="666" 
d="M387 -161q44 0 79 19l17 -37q-45 -31 -108 -31q-66 0 -106.5 26t-40.5 75q0 56 62 97q-121 12 -194 92.5t-73 208.5v481h200v-490q0 -52 30 -81t80 -29t80 29t30 81v490h200v-481q0 -119 -64 -197.5t-172 -99.5q-91 -29 -91 -94q0 -28 19 -43.5t52 -15.5z" />
    <glyph glyph-name="uogonek" unicode="&#x173;" horiz-adv-x="596" 
d="M504 -161q44 0 79 19l17 -37q-45 -31 -108 -31q-66 0 -106.5 26t-40.5 75q0 41 35 76v79q-61 -58 -169 -58q-83 0 -141 51t-58 135v396h180v-359q0 -34 24 -55.5t60 -21.5q44 0 72 23.5t28 64.5v348h180v-570q-123 -26 -123 -102q0 -28 19 -43.5t52 -15.5z" />
    <glyph glyph-name="Wcircumflex" unicode="&#x174;" horiz-adv-x="1164" 
d="M586 770l203 -375l155 375h215l-338 -780h-9l-230 430l-230 -430h-9l-338 780h215l154 -375l204 375h8zM411 785l-6 38l177 67l177 -67l-6 -38l-171 37z" />
    <glyph glyph-name="wcircumflex" unicode="&#x175;" horiz-adv-x="882" 
d="M443 576l160 -261l97 255h176l-237 -582h-4l-194 326l-194 -326h-4l-237 582h176l97 -255l160 261h4zM311 605l-15 26l145 125l145 -125l-15 -26l-130 52z" />
    <glyph glyph-name="Ycircumflex" unicode="&#x176;" horiz-adv-x="760" 
d="M194 770l188 -344l188 344h207l-295 -500v-270h-200v270l-295 500h207zM211 785l-6 38l177 67l177 -67l-6 -38l-171 37z" />
    <glyph glyph-name="ycircumflex" unicode="&#x177;" horiz-adv-x="692" 
d="M328 -210h-212l113 237l-227 543h204l127 -324l146 324h210zM215 605l-15 26l145 125l145 -125l-15 -26l-130 52z" />
    <glyph glyph-name="Ydieresis" unicode="&#x178;" horiz-adv-x="760" 
d="M194 770l188 -344l188 344h207l-295 -500v-270h-200v270l-295 500h207zM233 835q0 21 14.5 35.5t35.5 14.5t35.5 -14.5t14.5 -35.5t-14.5 -35.5t-35.5 -14.5t-35.5 14.5t-14.5 35.5zM433 835q0 21 14.5 35.5t35.5 14.5t35.5 -14.5t14.5 -35.5t-14.5 -35.5t-35.5 -14.5
t-35.5 14.5t-14.5 35.5z" />
    <glyph glyph-name="Zacute" unicode="&#x179;" 
d="M12 4l342 596h-302v170h600v-4l-342 -596h332v-170h-630v4zM282 790l-6 38l174 52l12 -76z" />
    <glyph glyph-name="zacute" unicode="&#x17a;" horiz-adv-x="546" 
d="M8 8l272 426h-242v136h500v-8l-272 -426h272v-136h-530v8zM273 605l-15 26l145 125l55 -96z" />
    <glyph glyph-name="Zdotaccent" unicode="&#x17b;" 
d="M12 4l342 596h-302v170h600v-4l-342 -596h332v-170h-630v4zM283 835q0 21 14.5 35.5t35.5 14.5t35.5 -14.5t14.5 -35.5t-14.5 -35.5t-35.5 -14.5t-35.5 14.5t-14.5 35.5z" />
    <glyph glyph-name="zdotaccent" unicode="&#x17c;" horiz-adv-x="546" 
d="M8 8l272 426h-242v136h500v-8l-272 -426h272v-136h-530v8zM173 702q0 41 29.5 70.5t70.5 29.5t70.5 -29.5t29.5 -70.5t-29.5 -70.5t-70.5 -29.5t-70.5 29.5t-29.5 70.5z" />
    <glyph glyph-name="Zcaron" unicode="&#x17d;" 
d="M12 4l342 596h-302v170h600v-4l-342 -596h332v-170h-630v4zM503 890l6 -38l-177 -67l-177 67l6 38l171 -38z" />
    <glyph glyph-name="zcaron" unicode="&#x17e;" horiz-adv-x="546" 
d="M8 8l272 426h-242v136h500v-8l-272 -426h272v-136h-530v8zM128 728l15 26l130 -53l130 53l15 -26l-145 -125z" />
    <glyph glyph-name="Scommaaccent" unicode="&#x218;" horiz-adv-x="603" 
d="M289 155q48 0 76.5 19.5t28.5 56.5q0 17 -10 30.5t-33 25t-41.5 18t-54.5 17.5q-101 31 -158 83t-57 144q0 105 79 170t195 65q94 0 163.5 -37.5t96.5 -104.5l-161 -93q-33 66 -93 66q-37 0 -57 -17t-20 -41q0 -11 3.5 -19.5t11.5 -15t15.5 -11.5t21 -10t22.5 -7.5l26 -7
t26 -7.5q60 -18 98.5 -36.5t69.5 -47t45 -70t14 -98.5q0 -93 -84 -167t-218 -74q-106 0 -180 42.5t-109 122.5l160 93q33 -89 124 -89zM265 -40h82l-30 -170h-59z" />
    <glyph glyph-name="scommaaccent" unicode="&#x219;" horiz-adv-x="501" 
d="M254 -12q-165 0 -248 102l106 104q52 -64 133 -64q75 0 75 41q0 24 -21.5 35t-82.5 21q-91 15 -137 61t-46 106q0 85 66 136.5t161 51.5q70 0 124.5 -25.5t83.5 -72.5l-93 -91q-34 47 -105 47q-63 0 -63 -39q0 -10 6 -17t24 -13t31.5 -9t48.5 -10q85 -17 131 -59t46 -121
q0 -80 -70.5 -132t-169.5 -52zM215 -40h82l-30 -170h-59z" />
    <glyph glyph-name="dotlessj" unicode="&#x237;" horiz-adv-x="220" 
d="M20 -13v583h180v-604q0 -83 -52.5 -135.5t-137.5 -52.5t-137 44l62 129q16 -11 35 -11q22 0 36 13t14 34z" />
    <glyph glyph-name="circumflex" unicode="&#x2c6;" horiz-adv-x="434" 
d="M87 605l-15 26l145 125l145 -125l-15 -26l-130 52z" />
    <glyph glyph-name="caron" unicode="&#x2c7;" horiz-adv-x="434" 
d="M72 728l15 26l130 -53l130 53l15 -26l-145 -125z" />
    <glyph glyph-name="breve" unicode="&#x2d8;" horiz-adv-x="458" 
d="M229 610q-64 0 -111 36.5t-54 94.5h62q5 -27 35 -41t68 -14t68 14t35 41h62q-7 -58 -54 -94.5t-111 -36.5z" />
    <glyph glyph-name="dotaccent" unicode="&#x2d9;" horiz-adv-x="376" 
d="M88 702q0 41 29.5 70.5t70.5 29.5t70.5 -29.5t29.5 -70.5t-29.5 -70.5t-70.5 -29.5t-70.5 29.5t-29.5 70.5z" />
    <glyph glyph-name="ring" unicode="&#x2da;" horiz-adv-x="364" 
d="M93 691q0 37 26 63t63 26t63 -26t26 -63t-26 -63t-63 -26t-63 26t-26 63zM231 691q0 20 -14.5 34.5t-34.5 14.5t-34.5 -14.5t-14.5 -34.5t14.5 -34.5t34.5 -14.5t34.5 14.5t14.5 34.5z" />
    <glyph glyph-name="ogonek" unicode="&#x2db;" horiz-adv-x="373" 
d="M284 -161q44 0 79 19l17 -37q-45 -31 -108 -31q-66 0 -106.5 26t-40.5 75q0 50 48.5 87t124.5 50l38 -28q-123 -26 -123 -102q0 -28 19 -43.5t52 -15.5z" />
    <glyph glyph-name="tilde" unicode="&#x2dc;" horiz-adv-x="500" 
d="M163 751q45 0 98 -27.5t80 -27.5q51 0 62 43h46q-7 -61 -36.5 -93.5t-75.5 -32.5q-45 0 -98 27.5t-80 27.5q-51 0 -62 -43h-46q7 61 36.5 93.5t75.5 32.5z" />
    <glyph glyph-name="hungarumlaut" unicode="&#x2dd;" horiz-adv-x="406" 
d="M120 605l-26 15l47 136l79 -46zM240 605l-26 15l47 136l79 -46z" />
    <glyph glyph-name="Wgrave" unicode="&#x1e80;" horiz-adv-x="1164" 
d="M586 770l203 -375l155 375h215l-338 -780h-9l-230 430l-230 -430h-9l-338 780h215l154 -375l204 375h8zM639 828l-6 -38l-180 14l12 76z" />
    <glyph glyph-name="wgrave" unicode="&#x1e81;" horiz-adv-x="882" 
d="M443 576l160 -261l97 255h176l-237 -582h-4l-194 326l-194 -326h-4l-237 582h176l97 -255l160 261h4zM456 631l-15 -26l-185 55l55 96z" />
    <glyph glyph-name="Wacute" unicode="&#x1e82;" horiz-adv-x="1164" 
d="M586 770l203 -375l155 375h215l-338 -780h-9l-230 430l-230 -430h-9l-338 780h215l154 -375l204 375h8zM532 790l-6 38l174 52l12 -76z" />
    <glyph glyph-name="wacute" unicode="&#x1e83;" horiz-adv-x="882" 
d="M443 576l160 -261l97 255h176l-237 -582h-4l-194 326l-194 -326h-4l-237 582h176l97 -255l160 261h4zM441 605l-15 26l145 125l55 -96z" />
    <glyph glyph-name="Wdieresis" unicode="&#x1e84;" horiz-adv-x="1164" 
d="M586 770l203 -375l155 375h215l-338 -780h-9l-230 430l-230 -430h-9l-338 780h215l154 -375l204 375h8zM433 835q0 21 14.5 35.5t35.5 14.5t35.5 -14.5t14.5 -35.5t-14.5 -35.5t-35.5 -14.5t-35.5 14.5t-14.5 35.5zM633 835q0 21 14.5 35.5t35.5 14.5t35.5 -14.5
t14.5 -35.5t-14.5 -35.5t-35.5 -14.5t-35.5 14.5t-14.5 35.5z" />
    <glyph glyph-name="wdieresis" unicode="&#x1e85;" horiz-adv-x="882" 
d="M443 576l160 -261l97 255h176l-237 -582h-4l-194 326l-194 -326h-4l-237 582h176l97 -255l160 261h4zM211 702q0 41 29.5 70.5t70.5 29.5t70.5 -29.5t29.5 -70.5t-29.5 -70.5t-70.5 -29.5t-70.5 29.5t-29.5 70.5zM471 702q0 41 29.5 70.5t70.5 29.5t70.5 -29.5
t29.5 -70.5t-29.5 -70.5t-70.5 -29.5t-70.5 29.5t-29.5 70.5z" />
    <glyph glyph-name="endash" unicode="&#x2013;" horiz-adv-x="430" 
d="M409 474v-140h-388v140h388z" />
    <glyph glyph-name="emdash" unicode="&#x2014;" horiz-adv-x="930" 
d="M909 474v-140h-888v140h888z" />
    <glyph glyph-name="quoteleft" unicode="&#x2018;" horiz-adv-x="214" 
d="M60 790h146l-19 -220h-178z" />
    <glyph glyph-name="quoteright" unicode="&#x2019;" horiz-adv-x="214" 
d="M154 570h-146l19 220h178z" />
    <glyph glyph-name="quotesinglbase" unicode="&#x201a;" horiz-adv-x="214" 
d="M154 -80h-146l19 220h178z" />
    <glyph glyph-name="quotedblleft" unicode="&#x201c;" horiz-adv-x="414" 
d="M60 790h146l-19 -220h-178zM260 790h146l-19 -220h-178z" />
    <glyph glyph-name="quotedblright" unicode="&#x201d;" horiz-adv-x="414" 
d="M154 570h-146l19 220h178zM354 570h-146l19 220h178z" />
    <glyph glyph-name="quotedblbase" unicode="&#x201e;" horiz-adv-x="414" 
d="M154 -80h-146l19 220h178zM354 -80h-146l19 220h178z" />
    <glyph glyph-name="dagger" unicode="&#x2020;" horiz-adv-x="336" 
d="M100 280v234h-90v136h90v120h136v-120h90v-136h-90v-234h-136z" />
    <glyph glyph-name="daggerdbl" unicode="&#x2021;" horiz-adv-x="336" 
d="M100 110v234h-90v136h90v34h-90v136h90v120h136v-120h90v-136h-90v-34h90v-136h-90v-234h-136z" />
    <glyph glyph-name="bullet" unicode="&#x2022;" horiz-adv-x="300" 
d="M15 325q0 56 39.5 95.5t95.5 39.5t95.5 -39.5t39.5 -95.5t-39.5 -95.5t-95.5 -39.5t-95.5 39.5t-39.5 95.5z" />
    <glyph glyph-name="ellipsis" unicode="&#x2026;" horiz-adv-x="926" 
d="M23 90q0 41 29.5 70.5t70.5 29.5t70.5 -29.5t29.5 -70.5t-29.5 -70.5t-70.5 -29.5t-70.5 29.5t-29.5 70.5zM363 90q0 41 29.5 70.5t70.5 29.5t70.5 -29.5t29.5 -70.5t-29.5 -70.5t-70.5 -29.5t-70.5 29.5t-29.5 70.5zM703 90q0 41 29.5 70.5t70.5 29.5t70.5 -29.5
t29.5 -70.5t-29.5 -70.5t-70.5 -29.5t-70.5 29.5t-29.5 70.5z" />
    <glyph glyph-name="perthousand" unicode="&#x2030;" horiz-adv-x="1372" 
d="M22 595q0 78 55.5 133.5t133.5 55.5t133.5 -55.5t55.5 -133.5t-55.5 -133.5t-133.5 -55.5t-133.5 55.5t-55.5 133.5zM139 595q0 -33 21 -54t51 -21t51 21t21 54t-21 54t-51 21t-51 -21t-21 -54zM771 770l-447 -770h-143l447 770h143zM930 175q0 -78 -55.5 -133.5
t-133.5 -55.5t-133.5 55.5t-55.5 133.5t55.5 133.5t133.5 55.5t133.5 -55.5t55.5 -133.5zM813 175q0 33 -21 54t-51 21t-51 -21t-21 -54t21 -54t51 -21t51 21t21 54zM1350 175q0 -78 -55.5 -133.5t-133.5 -55.5t-133.5 55.5t-55.5 133.5t55.5 133.5t133.5 55.5t133.5 -55.5
t55.5 -133.5zM1233 175q0 33 -21 54t-51 21t-51 -21t-21 -54t21 -54t51 -21t51 21t21 54z" />
    <glyph glyph-name="guilsinglleft" unicode="&#x2039;" horiz-adv-x="249" 
d="M221 440l-117 -115l117 -115v-120l-200 145v180l200 145v-120z" />
    <glyph glyph-name="guilsinglright" unicode="&#x203a;" horiz-adv-x="249" 
d="M145 325l-117 115v120l200 -145v-180l-200 -145v120z" />
    <glyph glyph-name="fraction" unicode="&#x2044;" horiz-adv-x="424" 
d="M492 770l-447 -770h-113l447 770h113z" />
    <glyph glyph-name="uni2070" unicode="&#x2070;" horiz-adv-x="326" 
d="M105 577q0 -114 58 -114t58 114t-58 114t-58 -114zM315 577q0 -200 -152 -200q-76 0 -114.5 51.5t-38.5 148.5q0 200 153 200q152 0 152 -200z" />
    <glyph glyph-name="uni2074" unicode="&#x2074;" horiz-adv-x="323" 
d="M270 775v-237h44v-85h-44v-68h-100v68h-161v65l195 257h66zM127 538h43v59z" />
    <glyph glyph-name="uni2075" unicode="&#x2075;" horiz-adv-x="322" 
d="M292 685h-162v-45q22 8 47 8q62 0 98.5 -38t36.5 -97q0 -60 -40 -98t-118 -38q-110 0 -146 83l80 47q18 -44 66 -44q58 0 58 50q0 22 -15.5 35.5t-42.5 13.5q-37 0 -51 -16l-73 45v179h262v-85z" />
    <glyph glyph-name="uni2076" unicode="&#x2076;" horiz-adv-x="316" 
d="M247 770l-72 -119q59 -6 94.5 -44t35.5 -92q0 -59 -40.5 -98.5t-106.5 -39.5q-67 0 -107.5 39.5t-40.5 98.5q0 41 22 76l105 179h110zM211 515q0 21 -15.5 36t-37.5 15t-37.5 -15t-15.5 -36q0 -22 15.5 -37t37.5 -15t37.5 15t15.5 37z" />
    <glyph glyph-name="uni2077" unicode="&#x2077;" horiz-adv-x="334" 
d="M48 385l138 305h-176v80h315v-1l-172 -384h-105z" />
    <glyph glyph-name="uni2078" unicode="&#x2078;" horiz-adv-x="304" 
d="M152 377q-66 0 -103 33.5t-37 87.5q0 53 46 90q-35 30 -35 77q0 48 32.5 80t96.5 32t96.5 -32t32.5 -80q0 -46 -36 -77q47 -37 47 -90q0 -54 -37 -87.5t-103 -33.5zM152 463q21 0 33 11.5t12 30.5q0 18 -12 29.5t-33 11.5t-33.5 -11.5t-12.5 -29.5q0 -19 12.5 -30.5
t33.5 -11.5zM186 659q0 14 -9 23t-25 9t-25.5 -9t-9.5 -23t9.5 -23.5t25.5 -9.5t25 9t9 24z" />
    <glyph glyph-name="uni2079" unicode="&#x2079;" horiz-adv-x="316" 
d="M69 385l71 118q-59 5 -94.5 43.5t-35.5 93.5q0 58 40.5 97.5t107.5 39.5q66 0 106.5 -39.5t40.5 -97.5q0 -37 -17 -68l-109 -187h-110zM105 640q0 -22 15.5 -37t37.5 -15t37.5 15t15.5 37q0 21 -15.5 36t-37.5 15t-37.5 -15t-15.5 -36z" />
    <glyph glyph-name="uni2080" unicode="&#x2080;" horiz-adv-x="326" 
d="M105 192q0 -114 58 -114t58 114t-58 114t-58 -114zM315 192q0 -200 -152 -200q-76 0 -114.5 51.5t-38.5 148.5q0 200 153 200q152 0 152 -200z" />
    <glyph glyph-name="uni2081" unicode="&#x2081;" horiz-adv-x="186" 
d="M71 0v300h-62l39 85h123v-385h-100z" />
    <glyph glyph-name="uni2082" unicode="&#x2082;" horiz-adv-x="323" 
d="M161 392q68 0 107 -32.5t39 -81.5q0 -21 -8.5 -43t-17.5 -34.5l-26 -34.5l-71 -86h128v-80h-299v1l156 196q28 34 28 66q0 17 -12.5 30t-31.5 13q-40 0 -58 -43l-80 46q36 83 146 83z" />
    <glyph glyph-name="uni2083" unicode="&#x2083;" horiz-adv-x="322" 
d="M157 78q60 0 60 43q0 41 -54 41h-66v78h67q42 0 42 33t-44 33q-41 0 -59 -34l-81 47q15 34 51 53.5t87 19.5q70 0 105.5 -33t35.5 -81q0 -50 -40 -76q51 -33 51 -87q0 -55 -41.5 -89t-116.5 -34q-110 0 -146 83l80 47q18 -44 69 -44z" />
    <glyph glyph-name="uni2084" unicode="&#x2084;" horiz-adv-x="323" 
d="M270 390v-237h44v-85h-44v-68h-100v68h-161v65l195 257h66zM127 153h43v59z" />
    <glyph glyph-name="uni2085" unicode="&#x2085;" horiz-adv-x="322" 
d="M292 300h-162v-45q22 8 47 8q62 0 98.5 -38t36.5 -97q0 -60 -40 -98t-118 -38q-110 0 -146 83l80 47q18 -44 66 -44q58 0 58 50q0 22 -15.5 35.5t-42.5 13.5q-37 0 -51 -16l-73 45v179h262v-85z" />
    <glyph glyph-name="uni2086" unicode="&#x2086;" horiz-adv-x="316" 
d="M247 385l-72 -119q59 -6 94.5 -44t35.5 -92q0 -59 -40.5 -98.5t-106.5 -39.5q-67 0 -107.5 39.5t-40.5 98.5q0 41 22 76l105 179h110zM211 130q0 21 -15.5 36t-37.5 15t-37.5 -15t-15.5 -36q0 -22 15.5 -37t37.5 -15t37.5 15t15.5 37z" />
    <glyph glyph-name="uni2087" unicode="&#x2087;" horiz-adv-x="334" 
d="M48 0l138 305h-176v80h315v-1l-172 -384h-105z" />
    <glyph glyph-name="uni2088" unicode="&#x2088;" horiz-adv-x="304" 
d="M152 -8q-66 0 -103 33t-37 88q0 53 46 90q-35 30 -35 77q0 48 32.5 80t96.5 32t96.5 -32t32.5 -80q0 -46 -36 -77q47 -37 47 -90q0 -55 -37 -88t-103 -33zM152 78q21 0 33 11.5t12 30.5q0 18 -12 29.5t-33 11.5t-33.5 -11.5t-12.5 -29.5q0 -19 12.5 -30.5t33.5 -11.5z
M186 274q0 14 -9 23t-25 9t-25.5 -9t-9.5 -23t9.5 -23.5t25.5 -9.5t25 9.5t9 23.5z" />
    <glyph glyph-name="uni2089" unicode="&#x2089;" horiz-adv-x="316" 
d="M69 0l71 118q-59 5 -94.5 43.5t-35.5 93.5q0 58 40.5 97.5t107.5 39.5q66 0 106.5 -39.5t40.5 -97.5q0 -37 -17 -68l-109 -187h-110zM105 255q0 -22 15.5 -37t37.5 -15t37.5 15t15.5 37q0 21 -15.5 36t-37.5 15t-37.5 -15t-15.5 -36z" />
    <glyph glyph-name="Euro" unicode="&#x20ac;" horiz-adv-x="728" 
d="M412 260h-99q39 -90 122 -90q79 0 112 80l170 -100q-37 -86 -105.5 -125.5t-176.5 -39.5q-131 0 -218 70t-114 205h-93v95h83q-1 10 -1 30t1 30h-83v95h93q27 135 114 205t218 70q108 0 176.5 -39.5t105.5 -125.5l-170 -100q-33 80 -112 80q-83 0 -122 -90h191l-44 -95
h-167q-1 -10 -1 -30q0 -21 1 -30h163z" />
    <glyph glyph-name="servicemark" unicode="&#x2120;" horiz-adv-x="627" 
d="M532 482l3 124l-86 -96h-2l-87 96l4 -124h-80v312h2l162 -178l162 178h2v-312h-80zM124 544q42 0 42 30q0 13 -13.5 21t-41.5 16q-40 12 -63 33t-23 58q0 42 31.5 68t77.5 26q37 0 65 -15.5t39 -41.5l-64 -37q-13 26 -37 26q-15 0 -23 -7t-8 -16q0 -6 2.5 -10.5t9 -7.5
l10 -4.5t14.5 -4.5t14 -4q48 -15 69.5 -36t21.5 -65q0 -37 -33.5 -67t-87.5 -30q-87 0 -115 66l64 38q12 -36 49 -36z" />
    <glyph glyph-name="trademark" unicode="&#x2122;" horiz-adv-x="630" 
d="M535 482l3 124l-86 -96h-2l-87 96l4 -124h-80v312h2l162 -178l162 178h2v-312h-80zM249 790v-68h-80v-240h-80v240h-80v68h240z" />
    <glyph glyph-name="uni2153" unicode="&#x2153;" horiz-adv-x="746" 
d="M591 770l-447 -770h-113l447 770h113zM581 78q60 0 60 43q0 41 -54 41h-66v78h67q42 0 42 33t-44 33q-41 0 -59 -34l-81 47q15 34 51 53.5t87 19.5q70 0 105.5 -33t35.5 -81q0 -50 -40 -76q51 -33 51 -87q0 -55 -41.5 -89t-116.5 -34q-110 0 -146 83l80 47q18 -44 69 -44
zM71 385v300h-62l39 85h123v-385h-100z" />
    <glyph glyph-name="uni2154" unicode="&#x2154;" horiz-adv-x="875" 
d="M720 770l-447 -770h-113l447 770h113zM710 78q60 0 60 43q0 41 -54 41h-66v78h67q42 0 42 33t-44 33q-41 0 -59 -34l-81 47q15 34 51 53.5t87 19.5q70 0 105.5 -33t35.5 -81q0 -50 -40 -76q51 -33 51 -87q0 -55 -41.5 -89t-116.5 -34q-110 0 -146 83l80 47q18 -44 69 -44
zM161 777q68 0 107 -32.5t39 -81.5q0 -21 -8.5 -43t-17.5 -34.5l-26 -34.5l-71 -86h128v-80h-299v1l156 196q28 34 28 66q0 17 -12.5 30t-31.5 13q-40 0 -58 -43l-80 46q36 83 146 83z" />
    <glyph glyph-name="uni2155" unicode="&#x2155;" horiz-adv-x="746" 
d="M591 770l-447 -770h-113l447 770h113zM716 300h-162v-45q22 8 47 8q62 0 98.5 -38t36.5 -97q0 -60 -40 -98t-118 -38q-110 0 -146 83l80 47q18 -44 66 -44q58 0 58 50q0 22 -15.5 35.5t-42.5 13.5q-37 0 -51 -16l-73 45v179h262v-85zM71 385v300h-62l39 85h123v-385h-100
z" />
    <glyph glyph-name="uni2156" unicode="&#x2156;" horiz-adv-x="875" 
d="M720 770l-447 -770h-113l447 770h113zM845 300h-162v-45q22 8 47 8q62 0 98.5 -38t36.5 -97q0 -60 -40 -98t-118 -38q-110 0 -146 83l80 47q18 -44 66 -44q58 0 58 50q0 22 -15.5 35.5t-42.5 13.5q-37 0 -51 -16l-73 45v179h262v-85zM161 777q68 0 107 -32.5t39 -81.5
q0 -21 -8.5 -43t-17.5 -34.5l-26 -34.5l-71 -86h128v-80h-299v1l156 196q28 34 28 66q0 17 -12.5 30t-31.5 13q-40 0 -58 -43l-80 46q36 83 146 83z" />
    <glyph glyph-name="uni2157" unicode="&#x2157;" horiz-adv-x="872" 
d="M717 770l-447 -770h-113l447 770h113zM842 300h-162v-45q22 8 47 8q62 0 98.5 -38t36.5 -97q0 -60 -40 -98t-118 -38q-110 0 -146 83l80 47q18 -44 66 -44q58 0 58 50q0 22 -15.5 35.5t-42.5 13.5q-37 0 -51 -16l-73 45v179h262v-85zM157 463q60 0 60 43q0 41 -54 41h-66
v78h67q42 0 42 33t-44 33q-41 0 -59 -34l-81 47q15 34 51 53.5t87 19.5q70 0 105.5 -33t35.5 -81q0 -50 -40 -76q51 -33 51 -87q0 -55 -41.5 -89t-116.5 -34q-110 0 -146 83l80 47q18 -44 69 -44z" />
    <glyph glyph-name="uni2158" unicode="&#x2158;" horiz-adv-x="872" 
d="M717 770l-447 -770h-113l447 770h113zM842 300h-162v-45q22 8 47 8q62 0 98.5 -38t36.5 -97q0 -60 -40 -98t-118 -38q-110 0 -146 83l80 47q18 -44 66 -44q58 0 58 50q0 22 -15.5 35.5t-42.5 13.5q-37 0 -51 -16l-73 45v179h262v-85zM270 775v-237h44v-85h-44v-68h-100
v68h-161v65l195 257h66zM127 538h43v59z" />
    <glyph glyph-name="uni2159" unicode="&#x2159;" horiz-adv-x="744" 
d="M591 770l-447 -770h-113l447 770h113zM675 385l-72 -119q59 -6 94.5 -44t35.5 -92q0 -59 -40.5 -98.5t-106.5 -39.5q-67 0 -107.5 39.5t-40.5 98.5q0 41 22 76l105 179h110zM71 385v300h-62l39 85h123v-385h-100zM639 130q0 21 -15.5 36t-37.5 15t-37.5 -15t-15.5 -36
q0 -22 15.5 -37t37.5 -15t37.5 15t15.5 37z" />
    <glyph glyph-name="uni215A" unicode="&#x215a;" horiz-adv-x="870" 
d="M717 770l-447 -770h-113l447 770h113zM292 685h-162v-45q22 8 47 8q62 0 98.5 -38t36.5 -97q0 -60 -40 -98t-118 -38q-110 0 -146 83l80 47q18 -44 66 -44q58 0 58 50q0 22 -15.5 35.5t-42.5 13.5q-37 0 -51 -16l-73 45v179h262v-85zM801 385l-72 -119q59 -6 94.5 -44
t35.5 -92q0 -59 -40.5 -98.5t-106.5 -39.5q-67 0 -107.5 39.5t-40.5 98.5q0 41 22 76l105 179h110zM765 130q0 21 -15.5 36t-37.5 15t-37.5 -15t-15.5 -36q0 -22 15.5 -37t37.5 -15t37.5 15t15.5 37z" />
    <glyph glyph-name="uni215B" unicode="&#x215b;" horiz-adv-x="733" 
d="M581 -8q-66 0 -103 33t-37 88q0 53 46 90q-35 30 -35 77q0 48 32.5 80t96.5 32t96.5 -32t32.5 -80q0 -46 -36 -77q47 -37 47 -90q0 -55 -37 -88t-103 -33zM591 770l-447 -770h-113l447 770h113zM71 385v300h-62l39 85h123v-385h-100zM581 78q21 0 33 11.5t12 30.5
q0 18 -12 29.5t-33 11.5t-33.5 -11.5t-12.5 -29.5q0 -19 12.5 -30.5t33.5 -11.5zM615 274q0 14 -9 23t-25 9t-25.5 -9t-9.5 -23t9.5 -23.5t25.5 -9.5q15 0 24.5 9.5t9.5 23.5z" />
    <glyph glyph-name="uni215C" unicode="&#x215c;" horiz-adv-x="859" 
d="M707 -8q-66 0 -103 33t-37 88q0 53 46 90q-35 30 -35 77q0 48 32.5 80t96.5 32t96.5 -32t32.5 -80q0 -46 -36 -77q47 -37 47 -90q0 -55 -37 -88t-103 -33zM717 770l-447 -770h-113l447 770h113zM157 463q60 0 60 43q0 41 -54 41h-66v78h67q42 0 42 33t-44 33
q-41 0 -59 -34l-81 47q15 34 51 53.5t87 19.5q70 0 105.5 -33t35.5 -81q0 -50 -40 -76q51 -33 51 -87q0 -55 -41.5 -89t-116.5 -34q-110 0 -146 83l80 47q18 -44 69 -44zM707 78q21 0 33 11.5t12 30.5q0 18 -12 29.5t-33 11.5t-33.5 -11.5t-12.5 -29.5q0 -19 12.5 -30.5
t33.5 -11.5zM741 274q0 14 -9 23t-25 9t-25.5 -9t-9.5 -23t9.5 -23.5t25.5 -9.5q15 0 24.5 9.5t9.5 23.5z" />
    <glyph glyph-name="uni215D" unicode="&#x215d;" horiz-adv-x="859" 
d="M707 -8q-66 0 -103 33t-37 88q0 53 46 90q-35 30 -35 77q0 48 32.5 80t96.5 32t96.5 -32t32.5 -80q0 -46 -36 -77q47 -37 47 -90q0 -55 -37 -88t-103 -33zM717 770l-447 -770h-113l447 770h113zM292 685h-162v-45q22 8 47 8q62 0 98.5 -38t36.5 -97q0 -60 -40 -98
t-118 -38q-110 0 -146 83l80 47q18 -44 66 -44q58 0 58 50q0 22 -15.5 35.5t-42.5 13.5q-37 0 -51 -16l-73 45v179h262v-85zM707 78q21 0 33 11.5t12 30.5q0 18 -12 29.5t-33 11.5t-33.5 -11.5t-12.5 -29.5q0 -19 12.5 -30.5t33.5 -11.5zM741 274q0 14 -9 23t-25 9t-25.5 -9
t-9.5 -23t9.5 -23.5t25.5 -9.5q15 0 24.5 9.5t9.5 23.5z" />
    <glyph glyph-name="uni215E" unicode="&#x215e;" horiz-adv-x="830" 
d="M678 -8q-66 0 -103 33t-37 88q0 53 46 90q-35 30 -35 77q0 48 32.5 80t96.5 32t96.5 -32t32.5 -80q0 -46 -36 -77q47 -37 47 -90q0 -55 -37 -88t-103 -33zM688 770l-447 -770h-113l447 770h113zM48 385l138 305h-176v80h315v-1l-172 -384h-105zM678 78q21 0 33 11.5
t12 30.5q0 18 -12 29.5t-33 11.5t-33.5 -11.5t-12.5 -29.5q0 -19 12.5 -30.5t33.5 -11.5zM712 274q0 14 -9 23t-25 9t-25.5 -9t-9.5 -23t9.5 -23.5t25.5 -9.5t25 9.5t9 23.5z" />
    <glyph glyph-name="uni215F" unicode="&#x215f;" horiz-adv-x="523" 
d="M591 770l-447 -770h-113l447 770h113zM71 385v300h-62l39 85h123v-385h-100z" />
    <glyph glyph-name="arrowleft" unicode="&#x2190;" horiz-adv-x="803" 
d="M8 387l500 397v-213l-142 -101h422v-170h-422l142 -101v-213l-500 397v4z" />
    <glyph glyph-name="arrowup" unicode="&#x2191;" horiz-adv-x="814" 
d="M409 780l396 -500h-212l-101 142v-422h-170v422l-101 -142h-213l397 500h4z" />
    <glyph glyph-name="arrowright" unicode="&#x2192;" horiz-adv-x="803" 
d="M795 383l-500 -397v213l142 101h-422v170h422l-142 101v213l500 -397v-4z" />
    <glyph glyph-name="arrowdown" unicode="&#x2193;" horiz-adv-x="814" 
d="M405 -10l-397 500h213l101 -142v422h170v-422l101 142h213l-397 -500h-4z" />
    <glyph glyph-name="minus" unicode="&#x2212;" horiz-adv-x="540" 
d="M25 453h490v-136h-490v136z" />
    <glyph glyph-name="approxequal" unicode="&#x2248;" horiz-adv-x="554" 
d="M480 577l54 -110q-2 -3 -6 -8t-17.5 -18t-29 -23t-40.5 -18t-52 -8q-56 0 -119.5 28t-104.5 28q-46 0 -91 -45l-54 110q2 3 6 8t17.5 18t29 23t40.5 18t52 8q56 0 119.5 -28t104.5 -28q46 0 91 45zM480 367l54 -110q-2 -3 -6 -8t-17.5 -18t-29 -23t-40.5 -18t-52 -8
q-56 0 -119.5 28t-104.5 28q-46 0 -91 -45l-54 110q2 3 6 8t17.5 18t29 23t40.5 18t52 8q56 0 119.5 -28t104.5 -28q46 0 91 45z" />
    <glyph glyph-name="notequal" unicode="&#x2260;" horiz-adv-x="540" 
d="M25 558h277l75 129l101 -58l-41 -71h78v-136h-157l-42 -74h199v-136h-278l-74 -129l-101 58l41 71h-78v136h156l43 74h-199v136z" />
    <glyph glyph-name="lessequal" unicode="&#x2264;" horiz-adv-x="539" 
d="M21 508l490 163v-161l-235 -59l235 -51v-161l-490 153v116zM511 99l-490 153v101l490 -153v-101z" />
    <glyph glyph-name="greaterequal" unicode="&#x2265;" horiz-adv-x="539" 
d="M28 671l490 -163v-116l-490 -153v161l234 51l-234 59v161zM518 252l-490 -153v101l490 153v-101z" />
    <glyph glyph-name="blacksquare" unicode="&#x25a0;" horiz-adv-x="784" 
d="M777 770v-770h-770v770h770z" />
    <glyph glyph-name="blacksquare" unicode="&#xe740;" horiz-adv-x="784" 
d="M777 770v-770h-770v770h770z" />
    <glyph glyph-name="whitesquare" unicode="&#x25a1;" horiz-adv-x="804" 
d="M787 770v-770h-770v770h770zM197 594v-418h410v418h-410z" />
    <glyph glyph-name="blacksmallsquare" unicode="&#x25aa;" horiz-adv-x="604" 
d="M587 570v-570h-570v570h570z" />
    <glyph glyph-name="whitesmallsquare" unicode="&#x25ab;" horiz-adv-x="604" 
d="M587 570v-570h-570v570h570zM197 394v-218h210v218h-210z" />
    <glyph glyph-name="triagup" unicode="&#x25b2;" horiz-adv-x="912" 
d="M456 780l450 -780h-900z" />
    <glyph glyph-name="triagrt" unicode="&#x25ba;" horiz-adv-x="705" 
d="M697 385l-684 -395v790z" />
    <glyph glyph-name="triagdn" unicode="&#x25bc;" horiz-adv-x="912" 
d="M456 -10l-450 780h900z" />
    <glyph glyph-name="triaglf" unicode="&#x25c4;" horiz-adv-x="705" 
d="M692 -10l-684 395l684 395v-790z" />
    <glyph glyph-name="blackcircle" unicode="&#x25cf;" horiz-adv-x="822" 
d="M12 385q0 165 117 282t282 117t282 -117t117 -282t-117 -282t-282 -117t-282 117t-117 282z" />
    <glyph glyph-name="anglebracketleft" unicode="&#x3008;" horiz-adv-x="329" 
d="M326 830l-127 -505l127 -505h-182l-126 505l126 505h182z" />
    <glyph glyph-name="anglebracketright" unicode="&#x3009;" horiz-adv-x="329" 
d="M130 325l-127 505h182l126 -505l-126 -505h-182z" />
    <glyph glyph-name="fi" unicode="&#xe38c;" horiz-adv-x="633" 
d="M373 570v-140h-110v-430h-180v430h-75v140h75v44q0 83 52.5 135.5t137.5 52.5t137 -44l-62 -129q-16 11 -35 11q-22 0 -36 -13t-14 -34v-23h110zM613 570v-570h-180v570h180zM423 702q0 41 29.5 70.5t70.5 29.5t70.5 -29.5t29.5 -70.5t-29.5 -70.5t-70.5 -29.5
t-70.5 29.5t-29.5 70.5z" />
    <glyph glyph-name="fi" unicode="&#xfb01;" horiz-adv-x="633" 
d="M373 570v-140h-110v-430h-180v430h-75v140h75v44q0 83 52.5 135.5t137.5 52.5t137 -44l-62 -129q-16 11 -35 11q-22 0 -36 -13t-14 -34v-23h110zM613 570v-570h-180v570h180zM423 702q0 41 29.5 70.5t70.5 29.5t70.5 -29.5t29.5 -70.5t-29.5 -70.5t-70.5 -29.5
t-70.5 29.5t-29.5 70.5z" />
    <glyph glyph-name="fl" unicode="&#xe38d;" horiz-adv-x="626" 
d="M373 570v-140h-110v-430h-180v430h-75v140h75v44q0 83 52.5 135.5t137.5 52.5t137 -44l-62 -129q-16 11 -35 11q-22 0 -36 -13t-14 -34v-23h110zM433 0v790h180v-790h-180z" />
    <glyph glyph-name="fl" unicode="&#xfb02;" horiz-adv-x="626" 
d="M373 570v-140h-110v-430h-180v430h-75v140h75v44q0 83 52.5 135.5t137.5 52.5t137 -44l-62 -129q-16 11 -35 11q-22 0 -36 -13t-14 -34v-23h110zM433 0v790h180v-790h-180z" />
    <glyph glyph-name="caronSlovak" unicode="&#xe413;" horiz-adv-x="145" 
d="M113 790h82l-30 -170h-59z" />
    <glyph glyph-name="commaaccent" unicode="&#xe414;" horiz-adv-x="158" 
d="M48 -40h82l-30 -170h-59z" />
    <glyph glyph-name="commaaccent" unicode="&#xf6c3;" horiz-adv-x="158" 
d="M48 -40h82l-30 -170h-59z" />
    <glyph glyph-name="dotbelow" unicode="&#xe415;" horiz-adv-x="321" 
d="M94 -125q0 35 25 60t60 25t60 -25t25 -60t-25 -60t-60 -25t-60 25t-25 60z" />
    <glyph glyph-name="grave.cap" unicode="&#xe421;" horiz-adv-x="330" 
d="M244 828l-6 -38l-180 14l12 76z" />
    <glyph glyph-name="acute.cap" unicode="&#xe422;" horiz-adv-x="331" 
d="M92 790l-6 38l174 52l12 -76z" />
    <glyph glyph-name="circumflex.cap" unicode="&#xe423;" horiz-adv-x="435" 
d="M46 785l-6 38l177 67l177 -67l-6 -38l-171 37z" />
    <glyph glyph-name="tilde.cap" unicode="&#xe424;" horiz-adv-x="434" 
d="M297 848q40 0 56 31h40q-9 -41 -34.5 -67.5t-66.5 -26.5q-33 0 -81.5 21.5t-73.5 21.5q-40 0 -56 -31h-40q9 41 34.5 67.5t66.5 26.5q33 0 81.5 -21.5t73.5 -21.5z" />
    <glyph glyph-name="macron.cap" unicode="&#xe425;" horiz-adv-x="390" 
d="M335 879v-82h-280v82h280z" />
    <glyph glyph-name="breve.cap" unicode="&#xe426;" horiz-adv-x="434" 
d="M217 785q-65 0 -113.5 26t-61.5 80h62q7 -22 40 -32.5t73 -10.5t73 10.5t40 32.5h62q-13 -54 -61.5 -80t-113.5 -26z" />
    <glyph glyph-name="dotaccent.cap" unicode="&#xe428;" horiz-adv-x="276" 
d="M88 835q0 21 14.5 35.5t35.5 14.5t35.5 -14.5t14.5 -35.5t-14.5 -35.5t-35.5 -14.5t-35.5 14.5t-14.5 35.5z" />
    <glyph glyph-name="dieresis.cap" unicode="&#xe429;" horiz-adv-x="402" 
d="M51 835q0 21 14.5 35.5t35.5 14.5t35.5 -14.5t14.5 -35.5t-14.5 -35.5t-35.5 -14.5t-35.5 14.5t-14.5 35.5zM251 835q0 21 14.5 35.5t35.5 14.5t35.5 -14.5t14.5 -35.5t-14.5 -35.5t-35.5 -14.5t-35.5 14.5t-14.5 35.5z" />
    <glyph glyph-name="ring.cap" unicode="&#xe42a;" horiz-adv-x="326" 
d="M74 795q0 37 26 63t63 26t63 -26t26 -63t-26 -63t-63 -26t-63 26t-26 63zM212 795q0 20 -14.5 34.5t-34.5 14.5t-34.5 -14.5t-14.5 -34.5t14.5 -34.5t34.5 -14.5t34.5 14.5t14.5 34.5z" />
    <glyph glyph-name="hungarumlaut.cap" unicode="&#xe42b;" horiz-adv-x="390" 
d="M78 785l-16 35l100 70l31 -70zM228 785l-16 35l100 70l31 -70z" />
    <glyph glyph-name="caron.cap" unicode="&#xe42d;" horiz-adv-x="435" 
d="M388 890l6 -38l-177 -67l-177 67l6 38l171 -38z" />
    <glyph glyph-name="zero.LP" unicode="&#xe534;" horiz-adv-x="830" 
d="M620 385q0 99 -56 157t-149 58t-149 -58t-56 -157t56 -157t149 -58t149 58t56 157zM820 385q0 -180 -112 -290t-293 -110t-293 110t-112 290t112 290t293 110t293 -110t112 -290z" />
    <glyph glyph-name="f_dotlessi" unicode="&#xe770;" horiz-adv-x="626" 
d="M373 570v-140h-110v-430h-180v430h-75v140h75v44q0 83 52.5 135.5t137.5 52.5t137 -44l-62 -129q-16 11 -35 11q-22 0 -36 -13t-14 -34v-23h110zM613 570v-570h-180v570h180z" />
    <glyph glyph-name="idotaccent" unicode="&#xe785;" horiz-adv-x="220" 
d="M200 570v-570h-180v570h180zM10 702q0 41 29.5 70.5t70.5 29.5t70.5 -29.5t29.5 -70.5t-29.5 -70.5t-70.5 -29.5t-70.5 29.5t-29.5 70.5z" />
    <glyph glyph-name="onesixteenth" horiz-adv-x="969" 
d="M591 770l-447 -770h-113l447 770h113zM900 385l-72 -119q59 -6 94.5 -44t35.5 -92q0 -59 -40.5 -98.5t-106.5 -39.5q-67 0 -107.5 39.5t-40.5 98.5q0 41 22 76l105 179h110zM496 0v300h-62l39 85h123v-385h-100zM71 385v300h-62l39 85h123v-385h-100zM864 130
q0 21 -15.5 36t-37.5 15t-37.5 -15t-15.5 -36q0 -22 15.5 -37t37.5 -15t37.5 15t15.5 37z" />
    <glyph glyph-name="threesixteenths" horiz-adv-x="1095" 
d="M717 770l-447 -770h-113l447 770h113zM1026 385l-72 -119q59 -6 94.5 -44t35.5 -92q0 -59 -40.5 -98.5t-106.5 -39.5q-67 0 -107.5 39.5t-40.5 98.5q0 41 22 76l105 179h110zM157 463q60 0 60 43q0 41 -54 41h-66v78h67q42 0 42 33t-44 33q-41 0 -59 -34l-81 47
q15 34 51 53.5t87 19.5q70 0 105.5 -33t35.5 -81q0 -50 -40 -76q51 -33 51 -87q0 -55 -41.5 -89t-116.5 -34q-110 0 -146 83l80 47q18 -44 69 -44zM622 0v300h-62l39 85h123v-385h-100zM990 130q0 21 -15.5 36t-37.5 15t-37.5 -15t-15.5 -36q0 -22 15.5 -37t37.5 -15
t37.5 15t15.5 37z" />
    <glyph glyph-name="fivesixteenths" horiz-adv-x="1095" 
d="M717 770l-447 -770h-113l447 770h113zM292 685h-162v-45q22 8 47 8q62 0 98.5 -38t36.5 -97q0 -60 -40 -98t-118 -38q-110 0 -146 83l80 47q18 -44 66 -44q58 0 58 50q0 22 -15.5 35.5t-42.5 13.5q-37 0 -51 -16l-73 45v179h262v-85zM1026 385l-72 -119q59 -6 94.5 -44
t35.5 -92q0 -59 -40.5 -98.5t-106.5 -39.5q-67 0 -107.5 39.5t-40.5 98.5q0 41 22 76l105 179h110zM622 0v300h-62l39 85h123v-385h-100zM990 130q0 21 -15.5 36t-37.5 15t-37.5 -15t-15.5 -36q0 -22 15.5 -37t37.5 -15t37.5 15t15.5 37z" />
    <glyph glyph-name="sevensixteenths" horiz-adv-x="1066" 
d="M688 770l-447 -770h-113l447 770h113zM997 385l-72 -119q59 -6 94.5 -44t35.5 -92q0 -59 -40.5 -98.5t-106.5 -39.5q-67 0 -107.5 39.5t-40.5 98.5q0 41 22 76l105 179h110zM48 385l138 305h-176v80h315v-1l-172 -384h-105zM593 0v300h-62l39 85h123v-385h-100zM961 130
q0 21 -15.5 36t-37.5 15t-37.5 -15t-15.5 -36q0 -22 15.5 -37t37.5 -15t37.5 15t15.5 37z" />
    <glyph glyph-name="ninesixteenths" horiz-adv-x="1051" 
d="M673 770l-447 -770h-113l447 770h113zM982 385l-72 -119q59 -6 94.5 -44t35.5 -92q0 -59 -40.5 -98.5t-106.5 -39.5q-67 0 -107.5 39.5t-40.5 98.5q0 41 22 76l105 179h110zM69 385l71 118q-59 5 -94.5 43.5t-35.5 93.5q0 58 40.5 97.5t107.5 39.5q66 0 106.5 -39.5
t40.5 -97.5q0 -37 -17 -68l-109 -187h-110zM578 0v300h-62l39 85h123v-385h-100zM946 130q0 21 -15.5 36t-37.5 15t-37.5 -15t-15.5 -36q0 -22 15.5 -37t37.5 -15t37.5 15t15.5 37zM105 640q0 -22 15.5 -37t37.5 -15t37.5 15t15.5 37q0 21 -15.5 36t-37.5 15t-37.5 -15
t-15.5 -36z" />
    <glyph glyph-name="elevensixteenths" horiz-adv-x="1194" 
d="M816 770l-447 -770h-113l447 770h113zM1125 385l-72 -119q59 -6 94.5 -44t35.5 -92q0 -59 -40.5 -98.5t-106.5 -39.5q-67 0 -107.5 39.5t-40.5 98.5q0 41 22 76l105 179h110zM71 385v300h-62l39 85h123v-385h-100zM296 385v300h-62l39 85h123v-385h-100zM721 0v300h-62
l39 85h123v-385h-100zM1089 130q0 21 -15.5 36t-37.5 15t-37.5 -15t-15.5 -36q0 -22 15.5 -37t37.5 -15t37.5 15t15.5 37z" />
    <glyph glyph-name="thirteensixteenths" horiz-adv-x="1319" 
d="M941 770l-447 -770h-113l447 770h113zM1250 385l-72 -119q59 -6 94.5 -44t35.5 -92q0 -59 -40.5 -98.5t-106.5 -39.5q-67 0 -107.5 39.5t-40.5 98.5q0 41 22 76l105 179h110zM381 463q60 0 60 43q0 41 -54 41h-66v78h67q42 0 42 33t-44 33q-41 0 -59 -34l-81 47
q15 34 51 53.5t87 19.5q70 0 105.5 -33t35.5 -81q0 -50 -40 -76q51 -33 51 -87q0 -55 -41.5 -89t-116.5 -34q-110 0 -146 83l80 47q18 -44 69 -44zM71 385v300h-62l39 85h123v-385h-100zM846 0v300h-62l39 85h123v-385h-100zM1214 130q0 21 -15.5 36t-37.5 15t-37.5 -15
t-15.5 -36q0 -22 15.5 -37t37.5 -15t37.5 15t15.5 37z" />
    <glyph glyph-name="fifteensixteenths" horiz-adv-x="1319" 
d="M941 770l-447 -770h-113l447 770h113zM516 685h-162v-45q22 8 47 8q62 0 98.5 -38t36.5 -97q0 -60 -40 -98t-118 -38q-110 0 -146 83l80 47q18 -44 66 -44q58 0 58 50q0 22 -15.5 35.5t-42.5 13.5q-37 0 -51 -16l-73 45v179h262v-85zM1250 385l-72 -119q59 -6 94.5 -44
t35.5 -92q0 -59 -40.5 -98.5t-106.5 -39.5q-67 0 -107.5 39.5t-40.5 98.5q0 41 22 76l105 179h110zM71 385v300h-62l39 85h123v-385h-100zM846 0v300h-62l39 85h123v-385h-100zM1214 130q0 21 -15.5 36t-37.5 15t-37.5 -15t-15.5 -36q0 -22 15.5 -37t37.5 -15t37.5 15
t15.5 37z" />
    </font>
</defs>
</svg>
